<?xml version="1.0" encoding="UTF-8"?>
<svg id="guías" xmlns="http://www.w3.org/2000/svg" version="1.1" viewBox="0 0 39.649 39.649">
  <path d="M19.725.694L.76,13.47v12.909l18.964,12.576,19.164-12.576v-12.842L19.725.694ZM21.388,5.618l12.842,8.451-5.723,3.859-7.12-4.724v-7.586ZM18.194,5.618v7.453l-7.253,4.857-5.523-3.793,12.776-8.517ZM4.021,17.396l4.126,2.429-4.126,3.101v-5.53ZM18.194,34.26l-12.776-8.58,5.789-3.826,6.987,4.857v7.549ZM14.135,19.924l5.589-3.859,5.656,3.859-5.556,3.65-5.689-3.65ZM21.388,34.26v-7.482l7.12-4.924,5.723,3.826-12.842,8.58ZM35.495,22.925l-4.059-3.001,4.059-2.529v5.53Z" fill="#000" stroke-width="0"/>
</svg>