<?xml version="1.0" encoding="UTF-8"?>
<svg id="Capa_3" data-name="Capa 3" xmlns="http://www.w3.org/2000/svg" version="1.1" viewBox="0 0 39.649 39.649">
  <path d="M33.187,7.42c-2.492-1.166-5.157-2.013-7.942-2.496-.342.619-.742,1.45-1.017,2.112-2.961-.445-5.895-.445-8.802,0-.276-.662-.684-1.494-1.029-2.112-2.789.482-5.456,1.333-7.948,2.502C1.42,15.022.058,22.428.739,29.73c3.334,2.49,6.565,4.002,9.741,4.992.784-1.079,1.484-2.227,2.086-3.436-1.148-.436-2.247-.974-3.285-1.599.276-.204.545-.418.805-.637,6.334,2.963,13.217,2.963,19.476,0,.263.22.533.433.805.637-1.042.628-2.144,1.166-3.291,1.602.603,1.206,1.299,2.357,2.086,3.436,3.179-.99,6.413-2.502,9.747-4.995.8-8.464-1.365-15.803-5.722-22.31ZM13.429,25.24c-1.902,0-3.461-1.775-3.461-3.937s1.526-3.94,3.461-3.94,3.494,1.775,3.461,3.94c.003,2.161-1.526,3.937-3.461,3.937ZM26.219,25.24c-1.902,0-3.461-1.775-3.461-3.937s1.526-3.94,3.461-3.94,3.494,1.775,3.461,3.94c0,2.161-1.526,3.937-3.461,3.937Z" fill="#000" stroke-width="0"/>
</svg>