<?xml version="1.0" encoding="UTF-8"?>
<svg id="guías" xmlns="http://www.w3.org/2000/svg" version="1.1" viewBox="0 0 39.649 39.649">
  <path d="M39.071,21.106c-.03.526-.068,1.05-.133,1.573-.151,1.227-.417,2.429-.803,3.603-.859,2.615-2.213,4.944-4.065,6.98-1.923,2.115-4.203,3.727-6.841,4.832-.398.167-.8.324-1.211.455-.269.086-.545.086-.812-.013-.342-.127-.563-.457-.565-.854-.003-.486.002-.972.006-1.458.013-1.382.027-2.765.006-4.147-.013-.858-.19-1.684-.616-2.442-.174-.311-.391-.588-.672-.838.155-.02.294-.037.431-.055,1.032-.138,2.048-.341,3.031-.694.896-.322,1.73-.756,2.47-1.362.996-.815,1.694-1.841,2.151-3.038.282-.74.46-1.506.568-2.29.108-.784.152-1.572.128-2.363-.055-1.814-.671-3.411-1.872-4.776-.072-.081-.084-.142-.048-.245.287-.805.377-1.637.329-2.488-.048-.829-.238-1.626-.534-2.4-.024-.063-.056-.093-.124-.103-.372-.058-.738-.017-1.102.055-.864.172-1.662.519-2.436.928-.54.285-1.061.603-1.565.947-.071.048-.131.06-.215.037-.892-.246-1.798-.414-2.718-.514-.965-.104-1.932-.135-2.901-.086-1.289.066-2.559.26-3.804.604-.072.02-.123.007-.181-.032-.831-.555-1.693-1.056-2.619-1.438-.586-.242-1.187-.434-1.82-.503-.231-.025-.462-.031-.694.006-.052.008-.081.026-.101.078-.384.983-.586,1.998-.554,3.055.02.658.129,1.301.362,1.92.029.078-.013.109-.051.152-.752.85-1.292,1.817-1.604,2.91-.231.808-.309,1.634-.293,2.472.025,1.278.175,2.535.585,3.752.404,1.199,1.039,2.252,1.979,3.111.8.731,1.73,1.241,2.743,1.607.821.297,1.667.49,2.528.624.279.043.558.083.838.114.023.003.046.011.08.018-.244.22-.443.464-.607.736-.327.541-.508,1.133-.599,1.755-.008.057-.028.087-.081.11-.788.34-1.605.527-2.467.458-.954-.076-1.751-.484-2.404-1.178-.241-.256-.447-.54-.633-.839-.379-.611-.846-1.142-1.447-1.546-.59-.395-1.235-.567-1.944-.461-.106.016-.209.039-.306.086-.182.09-.23.228-.139.411.046.094.111.174.184.248.154.158.323.3.517.403.465.246.803.625,1.106,1.04.443.609.818,1.256,1.102,1.957.403.997,1.15,1.633,2.152,1.985.752.264,1.533.332,2.324.312.612-.016,1.218-.085,1.82-.197.078-.014.109-.011.11.086.004,1.141.014,2.282.023,3.423.003.353-.103.655-.415.854-.236.15-.5.173-.77.141-.295-.036-.563-.165-.837-.268-2.314-.873-4.386-2.142-6.21-3.812-2.36-2.162-4.082-4.751-5.159-7.767-.422-1.182-.72-2.395-.9-3.637-.093-.642-.153-1.288-.185-1.936-.001-.021.018-.051-.018-.063v-1.599c.032-.01.017-.037.018-.055.028-.677.093-1.35.193-2.02.215-1.435.576-2.832,1.118-4.178,1.76-4.371,4.71-7.692,8.849-9.942,2.481-1.349,5.145-2.079,7.964-2.244.116-.007.235.008.348-.032h1.524c.012.029.038.016.057.017.416.017.832.049,1.246.092.989.102,1.963.281,2.923.539,2.774.746,5.259,2.046,7.453,3.899,1.757,1.484,3.205,3.228,4.337,5.23,1.469,2.597,2.286,5.388,2.461,8.367.006.109-.01.221.032.327v1.053c-.005.182-.01.364-.014.546Z" fill="#000" stroke-width="0"/>
</svg>