<?xml version="1.0" encoding="UTF-8"?>
<svg id="Capa_3" data-name="Capa 3" xmlns="http://www.w3.org/2000/svg" version="1.1" viewBox="0 0 39.649 39.649">
  <path d="M19.824,4.693c4.669,0,7.632.017,9.644.361,1.565.267,2.431.695,3.432,1.695,1.929,1.929,2.056,3.404,2.056,12.785v.291c0,4.669-.017,7.632-.36,9.644-.267,1.565-.695,2.431-1.695,3.432-1.916,1.916-3.501,2.056-12.502,2.056h-.573c-4.669,0-7.632-.017-9.644-.36-1.565-.267-2.431-.695-3.432-1.695-1.929-1.929-2.056-3.404-2.056-12.785v-.291c0-4.669.017-7.632.36-9.644.267-1.565.695-2.431,1.695-3.432,1.916-1.916,3.501-2.056,12.502-2.056h.573M19.824.804h0c-.194,0-.385,0-.573,0-9.077,0-12.09.032-15.253,3.195S.804,10.314.804,19.824h0c0,9.525-.033,12.597,3.195,15.826,3.151,3.151,6.315,3.195,15.826,3.195h0c.194,0,.385,0,.573,0,9.077,0,12.09-.032,15.253-3.195s3.195-6.315,3.195-15.826h0c0-9.525.033-12.597-3.195-15.826-3.151-3.151-6.315-3.195-15.826-3.195h0Z" fill="#000" stroke-width="0"/>
  <path d="M19.824,13.504c3.491,0,6.32,2.83,6.32,6.32s-2.83,6.32-6.32,6.32-6.32-2.83-6.32-6.32,2.83-6.32,6.32-6.32M19.824,9.615c-5.63,0-10.21,4.58-10.21,10.21s4.58,10.21,10.21,10.21,10.21-4.58,10.21-10.21-4.58-10.21-10.21-10.21h0Z" fill="#000" stroke-width="0"/>
  <circle cx="29.955" cy="9.705" r="2.315" fill="#000" stroke-width="0"/>
</svg>