<?xml version="1.0" encoding="UTF-8"?>
<svg id="guías" xmlns="http://www.w3.org/2000/svg" version="1.1" viewBox="0 0 39.649 39.649">
  <path d="M36.951.653H2.698C1.568.653.653,1.568.653,2.698v34.253c0,1.129.916,2.045,2.045,2.045h34.253c1.129,0,2.045-.916,2.045-2.045V2.698c0-1.129-.916-2.045-2.045-2.045ZM11.855,33.417h-5.664V15.01h5.664v18.407ZM9.061,12.415c-1.925,0-3.486-1.561-3.486-3.486s1.561-3.486,3.486-3.486,3.486,1.561,3.486,3.486-1.561,3.486-3.486,3.486ZM33.435,33.417h-5.664l.049-10.39c-.106-1.654-.836-2.924-2.565-3.345-1.743-.424-4.661.955-4.661,3.345v10.39h-5.712V15.01h5.371v2.588c1.992-3.449,11.961-5.721,13.183,3.711v12.109Z" fill="#000" stroke-width="0"/>
</svg>