<?xml version="1.0" encoding="utf-8"?>
<!-- Generator: Adobe Illustrator 17.0.0, SVG Export Plug-In . SVG Version: 6.00 Build 0)  -->
<!DOCTYPE svg PUBLIC "-//W3C//DTD SVG 1.1//EN" "http://www.w3.org/Graphics/SVG/1.1/DTD/svg11.dtd">
<svg version="1.1" xmlns="http://www.w3.org/2000/svg" xmlns:xlink="http://www.w3.org/1999/xlink" x="0px" y="0px" width="250px"
	 height="110.54px" viewBox="0 0 250 110.54" enable-background="new 0 0 250 110.54" xml:space="preserve">
<g id="fondo_oscuro">
</g>
<g id="logos">
	<rect x="586.434" y="-2932.754" fill="#3F3F3F" width="2525.132" height="1014.224"/>
	<g>
		<g>
			<circle id="verde" fill="#00D6D3" cx="1126.868" cy="-8378.799" r="322"/>
			<text transform="matrix(1 0 0 1 1537.4247 -8483.3867)"><tspan x="0" y="0" font-family="'Spartan-Medium'" font-size="50">.azul</tspan><tspan x="0" y="60" font-family="'Spartan-Medium'" font-size="50">{</tspan><tspan x="0" y="120" font-family="'Spartan-Medium'" font-size="50">  background : #00D6D3;</tspan><tspan x="0" y="180" font-family="'Spartan-Medium'" font-size="50">  background : rgba(75, 184, 209, 1);</tspan><tspan x="0" y="240" font-family="'Spartan-Medium'" font-size="50">}</tspan></text>
		</g>
		<g>
			<text transform="matrix(1 0 0 1 1582.4647 -6918.2739)"><tspan x="0" y="0" fill="#3F3F3F" font-family="'Spartan-Medium'" font-size="122.0897">spartan SPARTAN</tspan><tspan x="0" y="212.436" fill="#3F3F3F" font-family="'Spartan-Medium'" font-size="177.03">1234567890</tspan></text>
			<g>
				<path id="gris" fill="#3F3F3F" d="M1448.868-6849.312c0,177.84-144.17,322-322,322c-177.84,0-322-144.16-322-322
					c0-175.92,141.08-318.9,316.28-321.94c1.9-0.04,3.81-0.06,5.72-0.06C1304.698-7171.312,1448.868-7027.142,1448.868-6849.312z"/>
				<path fill="#00D6D3" d="M1126.868-7171.312v643.94c-177.84,0-322-144.16-322-322c0-175.92,141.08-318.9,316.28-321.94H1126.868z
					"/>
			</g>
		</g>
		<g>
			<text transform="matrix(1 0 0 1 1537.4247 -7718.6426)"><tspan x="0" y="0" font-family="'Spartan-Medium'" font-size="50">.gris</tspan><tspan x="0" y="60" font-family="'Spartan-Medium'" font-size="50">{</tspan><tspan x="0" y="120" font-family="'Spartan-Medium'" font-size="50">  background : #3F3F3F;</tspan><tspan x="0" y="180" font-family="'Spartan-Medium'" font-size="50">  background : rgba(63, 63, 63, 1);</tspan><tspan x="0" y="240" font-family="'Spartan-Medium'" font-size="50">}</tspan></text>
			<path fill="#3F3F3F" d="M1448.868-7614.055c0,177.84-144.17,322-322,322c-177.84,0-322-144.16-322-322
				c0-175.92,141.08-318.9,316.28-321.94c1.9-0.04,3.81-0.06,5.72-0.06C1304.698-7936.055,1448.868-7791.885,1448.868-7614.055z"/>
		</g>
	</g>
	<g>
		<circle fill="#00D6D3" cx="3765.905" cy="-5718.983" r="375.284"/>
		<rect x="3854.013" y="-5843.521" fill="#3F3F3F" width="57.183" height="306.653"/>
		<path fill="#FFFFFF" d="M3794.494-6010.788v445.03h-56.58v-26.88c-0.2,0.15-0.4,0.31-0.6,0.46c-7.38,5.71-15.35,10.82-23.9,15.34
			c-26.05,13.77-55.33,20.66-87.85,20.66c-32.53,0-61.81-6.89-87.86-20.66c-26.03-13.77-46.69-32.92-61.94-57.47
			c-15.28-24.54-22.91-52.77-22.91-84.69c0-32.13,7.63-60.4,22.91-84.85c15.25-24.45,35.91-43.56,61.94-57.33
			c7.67-4.05,15.62-7.49,23.84-10.35v58.48h0.25c-14.01,9.17-25.27,21.12-33.8,35.83c-9.79,16.86-14.68,36.26-14.68,58.22
			c0,21.74,4.89,41.11,14.68,58.06c9.77,16.96,23.13,30.22,40.11,39.8c16.95,9.58,36.2,14.37,57.75,14.37
			c21.36,0,40.52-4.79,57.47-14.37s30.34-22.84,40.11-39.8c7.52-13.05,12.16-27.51,13.88-43.39c0.27-2.47,0.47-4.98,0.6-7.53v-14.36
			c-0.13-2.57-0.33-5.1-0.6-7.59c-1.74-15.98-6.36-30.45-13.88-43.41c-8.54-14.73-19.84-26.69-33.86-35.86v-58.45
			c8.22,2.86,16.17,6.3,23.84,10.35c8.55,4.53,16.52,9.63,23.9,15.33c0.2,0.15,0.4,0.31,0.6,0.46v-165.4H3794.494z"/>
		<path fill="#3F3F3F" d="M3625.702-5803.273c-7.185,0-13.77-1.797-19.755-5.389c-5.985-3.591-10.775-8.38-14.368-14.366
			c-3.59-5.985-5.385-12.571-5.385-19.755c0-7.183,1.795-13.766,5.385-19.753c3.593-5.987,8.382-10.724,14.368-14.216
			c5.985-3.489,12.57-5.239,19.755-5.239c7.183,0,13.768,1.75,19.753,5.239c5.985,3.492,10.724,8.229,14.217,14.216
			c3.489,5.987,5.239,12.571,5.239,19.753c0,7.185-1.75,13.77-5.239,19.755c-3.492,5.985-8.231,10.775-14.217,14.366
			C3639.469-5805.07,3632.885-5803.273,3625.702-5803.273z"/>
		<path fill="#3F3F3F" d="M3843.246-5472.647c0-7.185,1.797-13.77,5.389-19.755c3.591-5.985,8.38-10.775,14.366-14.368
			c5.985-3.59,12.57-5.385,19.755-5.385c7.183,0,13.766,1.795,19.753,5.385c5.987,3.593,10.724,8.382,14.217,14.368
			c3.489,5.985,5.239,12.57,5.239,19.755c0,7.183-1.75,13.768-5.239,19.753c-3.492,5.985-8.229,10.725-14.217,14.217
			c-5.987,3.489-12.57,5.239-19.753,5.239c-7.185,0-13.77-1.75-19.755-5.239c-5.985-3.492-10.775-8.231-14.366-14.217
			C3845.043-5458.879,3843.246-5465.464,3843.246-5472.647z"/>
	</g>
	<g>
		<circle fill="#3F3F3F" cx="3765.905" cy="-4615.662" r="375.284"/>
		<rect x="3854.013" y="-4740.201" fill="#FFFFFF" width="57.183" height="306.653"/>
		<path fill="#00D6D3" d="M3794.494-4907.467v445.03h-56.58v-26.88c-0.2,0.15-0.4,0.31-0.6,0.46c-7.38,5.71-15.35,10.82-23.9,15.34
			c-26.05,13.77-55.33,20.66-87.85,20.66c-32.53,0-61.81-6.89-87.86-20.66c-26.03-13.77-46.69-32.92-61.94-57.47
			c-15.28-24.54-22.91-52.77-22.91-84.69c0-32.13,7.63-60.4,22.91-84.85c15.25-24.45,35.91-43.56,61.94-57.33
			c7.67-4.05,15.62-7.49,23.84-10.35v58.48h0.25c-14.01,9.17-25.27,21.12-33.8,35.83c-9.79,16.86-14.68,36.26-14.68,58.22
			c0,21.74,4.89,41.11,14.68,58.06c9.77,16.96,23.13,30.22,40.11,39.8c16.95,9.58,36.2,14.37,57.75,14.37
			c21.36,0,40.52-4.79,57.47-14.37c16.95-9.58,30.34-22.84,40.11-39.8c7.52-13.05,12.16-27.51,13.88-43.39
			c0.27-2.47,0.47-4.98,0.6-7.53v-14.36c-0.13-2.57-0.33-5.1-0.6-7.59c-1.74-15.98-6.36-30.45-13.88-43.41
			c-8.54-14.73-19.84-26.69-33.86-35.86v-58.45c8.22,2.86,16.17,6.3,23.84,10.35c8.55,4.53,16.52,9.63,23.9,15.33
			c0.2,0.15,0.4,0.31,0.6,0.46v-165.4H3794.494z"/>
		<path fill="#FFFFFF" d="M3625.702-4699.952c-7.185,0-13.77-1.797-19.755-5.39c-5.985-3.59-10.775-8.38-14.368-14.366
			c-3.59-5.985-5.385-12.57-5.385-19.755c0-7.183,1.795-13.766,5.385-19.753c3.593-5.987,8.382-10.724,14.368-14.217
			c5.985-3.489,12.57-5.239,19.755-5.239c7.183,0,13.768,1.75,19.753,5.239c5.985,3.493,10.724,8.229,14.217,14.217
			c3.489,5.987,5.239,12.57,5.239,19.753c0,7.185-1.75,13.77-5.239,19.755c-3.492,5.985-8.231,10.775-14.217,14.366
			C3639.469-4701.75,3632.885-4699.952,3625.702-4699.952z"/>
		<path fill="#FFFFFF" d="M3843.246-4369.326c0-7.185,1.797-13.77,5.389-19.755c3.59-5.985,8.38-10.775,14.366-14.368
			c5.985-3.59,12.57-5.386,19.755-5.386c7.183,0,13.766,1.795,19.753,5.386c5.987,3.592,10.724,8.382,14.217,14.368
			c3.489,5.985,5.239,12.57,5.239,19.755c0,7.183-1.75,13.768-5.239,19.753c-3.492,5.985-8.229,10.724-14.217,14.217
			c-5.987,3.488-12.57,5.238-19.753,5.238c-7.185,0-13.77-1.75-19.755-5.238c-5.985-3.493-10.775-8.231-14.366-14.217
			C3845.043-4355.558,3843.246-4362.143,3843.246-4369.326z"/>
	</g>
	<g>
		<circle fill="#3F3F3F" cx="3765.905" cy="-3516.977" r="375.284"/>
		<rect x="3854.013" y="-3641.516" fill="#FFFFFF" width="57.183" height="306.653"/>
		<path fill="#FFFFFF" d="M3794.494-3808.782v445.03h-56.58v-26.88c-0.2,0.15-0.4,0.31-0.6,0.46c-7.38,5.71-15.35,10.82-23.9,15.34
			c-26.05,13.77-55.33,20.66-87.85,20.66c-32.53,0-61.81-6.89-87.86-20.66c-26.03-13.77-46.69-32.92-61.94-57.47
			c-15.28-24.54-22.91-52.77-22.91-84.69c0-32.13,7.63-60.4,22.91-84.85c15.25-24.45,35.91-43.56,61.94-57.33
			c7.67-4.05,15.62-7.49,23.84-10.35v58.48h0.25c-14.01,9.17-25.27,21.12-33.8,35.83c-9.79,16.86-14.68,36.26-14.68,58.22
			c0,21.74,4.89,41.11,14.68,58.06c9.77,16.96,23.13,30.22,40.11,39.8c16.95,9.58,36.2,14.37,57.75,14.37
			c21.36,0,40.52-4.79,57.47-14.37c16.95-9.58,30.34-22.84,40.11-39.8c7.52-13.05,12.16-27.51,13.88-43.39
			c0.27-2.47,0.47-4.98,0.6-7.53v-14.36c-0.13-2.57-0.33-5.1-0.6-7.59c-1.74-15.98-6.36-30.45-13.88-43.41
			c-8.54-14.73-19.84-26.69-33.86-35.86v-58.45c8.22,2.86,16.17,6.3,23.84,10.35c8.55,4.53,16.52,9.63,23.9,15.33
			c0.2,0.15,0.4,0.31,0.6,0.46v-165.4H3794.494z"/>
		<path fill="#FFFFFF" d="M3625.702-3601.267c-7.185,0-13.77-1.797-19.755-5.389c-5.985-3.591-10.775-8.38-14.368-14.366
			c-3.59-5.985-5.386-12.571-5.386-19.755c0-7.183,1.795-13.766,5.386-19.753c3.593-5.987,8.382-10.724,14.368-14.217
			c5.985-3.489,12.57-5.239,19.755-5.239c7.183,0,13.768,1.75,19.753,5.239c5.985,3.492,10.724,8.229,14.217,14.217
			c3.489,5.987,5.239,12.571,5.239,19.753c0,7.185-1.75,13.77-5.239,19.755c-3.492,5.985-8.231,10.775-14.217,14.366
			C3639.469-3603.064,3632.885-3601.267,3625.702-3601.267z"/>
		<path fill="#FFFFFF" d="M3843.246-3270.641c0-7.185,1.797-13.77,5.39-19.755c3.59-5.985,8.38-10.775,14.365-14.367
			c5.986-3.591,12.571-5.386,19.755-5.386c7.183,0,13.766,1.795,19.753,5.386c5.987,3.592,10.724,8.382,14.217,14.367
			c3.489,5.985,5.239,12.57,5.239,19.755c0,7.183-1.75,13.768-5.239,19.753c-3.492,5.986-8.229,10.724-14.217,14.217
			c-5.987,3.489-12.571,5.239-19.753,5.239c-7.185,0-13.77-1.75-19.755-5.239c-5.985-3.492-10.775-8.231-14.365-14.217
			C3845.043-3256.873,3843.246-3263.458,3843.246-3270.641z"/>
	</g>
	<rect x="3263.043" y="-2932.754" fill="#3F3F3F" width="1005.724" height="1014.224"/>
	<g>
		<circle fill="#00D6D3" cx="3765.905" cy="-2425.642" r="375.284"/>
		<rect x="3854.013" y="-2550.18" fill="#3F3F3F" width="57.183" height="306.653"/>
		<path fill="#FFFFFF" d="M3794.494-2717.447v445.03h-56.58v-26.88c-0.2,0.15-0.4,0.31-0.6,0.46c-7.38,5.71-15.35,10.82-23.9,15.34
			c-26.05,13.77-55.33,20.66-87.85,20.66c-32.53,0-61.81-6.89-87.86-20.66c-26.03-13.77-46.69-32.92-61.94-57.47
			c-15.28-24.54-22.91-52.77-22.91-84.69c0-32.13,7.63-60.4,22.91-84.85c15.25-24.45,35.91-43.56,61.94-57.33
			c7.67-4.05,15.62-7.49,23.84-10.35v58.48h0.25c-14.01,9.17-25.27,21.12-33.8,35.83c-9.79,16.86-14.68,36.26-14.68,58.22
			c0,21.74,4.89,41.11,14.68,58.06c9.77,16.96,23.13,30.22,40.11,39.8c16.95,9.58,36.2,14.37,57.75,14.37
			c21.36,0,40.52-4.79,57.47-14.37c16.95-9.58,30.34-22.84,40.11-39.8c7.52-13.05,12.16-27.51,13.88-43.39
			c0.27-2.47,0.47-4.98,0.6-7.53v-14.36c-0.13-2.57-0.33-5.1-0.6-7.59c-1.74-15.98-6.36-30.45-13.88-43.41
			c-8.54-14.73-19.84-26.69-33.86-35.86v-58.45c8.22,2.86,16.17,6.3,23.84,10.35c8.55,4.53,16.52,9.63,23.9,15.33
			c0.2,0.15,0.4,0.31,0.6,0.46v-165.4H3794.494z"/>
		<path fill="#3F3F3F" d="M3625.702-2509.932c-7.185,0-13.77-1.797-19.755-5.389c-5.985-3.59-10.775-8.38-14.368-14.366
			c-3.59-5.985-5.385-12.57-5.385-19.755c0-7.183,1.795-13.766,5.385-19.753c3.593-5.987,8.382-10.724,14.368-14.217
			c5.985-3.489,12.57-5.239,19.755-5.239c7.183,0,13.768,1.75,19.753,5.239c5.985,3.492,10.724,8.229,14.217,14.217
			c3.489,5.987,5.239,12.57,5.239,19.753c0,7.185-1.75,13.77-5.239,19.755c-3.492,5.986-8.231,10.775-14.217,14.366
			C3639.469-2511.729,3632.885-2509.932,3625.702-2509.932z"/>
		<path fill="#3F3F3F" d="M3843.246-2179.306c0-7.185,1.797-13.77,5.389-19.755c3.591-5.986,8.38-10.775,14.366-14.368
			c5.985-3.591,12.57-5.386,19.755-5.386c7.183,0,13.766,1.795,19.753,5.386c5.987,3.592,10.724,8.382,14.217,14.368
			c3.489,5.985,5.239,12.57,5.239,19.755c0,7.183-1.75,13.768-5.239,19.753c-3.492,5.985-8.229,10.724-14.217,14.217
			c-5.987,3.489-12.57,5.239-19.753,5.239c-7.185,0-13.77-1.75-19.755-5.239c-5.985-3.492-10.775-8.231-14.366-14.217
			C3845.043-2165.538,3843.246-2172.123,3843.246-2179.306z"/>
	</g>
	<rect x="4427.509" y="-6226.095" fill="#3F3F3F" width="1005.724" height="1014.224"/>
	<g>
		<circle fill="#00D6D3" cx="4930.371" cy="-5718.983" r="375.284"/>
		<rect x="5018.479" y="-5843.521" fill="#3F3F3F" width="57.183" height="306.653"/>
		<path fill="#FFFFFF" d="M4958.96-6010.788v445.03h-56.58v-26.88c-0.2,0.15-0.4,0.31-0.6,0.46c-7.38,5.71-15.35,10.82-23.9,15.34
			c-26.05,13.77-55.33,20.66-87.85,20.66c-32.53,0-61.81-6.89-87.86-20.66c-26.03-13.77-46.69-32.92-61.94-57.47
			c-15.28-24.54-22.91-52.77-22.91-84.69c0-32.13,7.63-60.4,22.91-84.85c15.25-24.45,35.91-43.56,61.94-57.33
			c7.67-4.05,15.62-7.49,23.84-10.35v58.48h0.25c-14.01,9.17-25.27,21.12-33.8,35.83c-9.79,16.86-14.68,36.26-14.68,58.22
			c0,21.74,4.89,41.11,14.68,58.06c9.77,16.96,23.13,30.22,40.11,39.8c16.95,9.58,36.2,14.37,57.75,14.37
			c21.36,0,40.52-4.79,57.47-14.37c16.95-9.58,30.34-22.84,40.11-39.8c7.52-13.05,12.16-27.51,13.88-43.39
			c0.27-2.47,0.47-4.98,0.6-7.53v-14.36c-0.13-2.57-0.33-5.1-0.6-7.59c-1.74-15.98-6.36-30.45-13.88-43.41
			c-8.54-14.73-19.84-26.69-33.86-35.86v-58.45c8.22,2.86,16.17,6.3,23.84,10.35c8.55,4.53,16.52,9.63,23.9,15.33
			c0.2,0.15,0.4,0.31,0.6,0.46v-165.4H4958.96z"/>
		<path fill="#3F3F3F" d="M4790.167-5803.273c-7.185,0-13.77-1.797-19.755-5.389c-5.985-3.591-10.775-8.38-14.367-14.366
			c-3.591-5.985-5.386-12.571-5.386-19.755c0-7.183,1.795-13.766,5.386-19.753c3.592-5.987,8.382-10.724,14.367-14.216
			c5.985-3.489,12.571-5.239,19.755-5.239c7.183,0,13.768,1.75,19.753,5.239c5.985,3.492,10.724,8.229,14.216,14.216
			c3.489,5.987,5.239,12.571,5.239,19.753c0,7.185-1.75,13.77-5.239,19.755c-3.492,5.985-8.231,10.775-14.216,14.366
			C4803.936-5805.07,4797.35-5803.273,4790.167-5803.273z"/>
		<path fill="#3F3F3F" d="M5007.712-5472.647c0-7.185,1.797-13.77,5.39-19.755c3.59-5.985,8.38-10.775,14.366-14.368
			c5.985-3.59,12.57-5.385,19.755-5.385c7.183,0,13.766,1.795,19.753,5.385c5.987,3.593,10.724,8.382,14.217,14.368
			c3.489,5.985,5.238,12.57,5.238,19.755c0,7.183-1.75,13.768-5.238,19.753c-3.493,5.985-8.229,10.725-14.217,14.217
			c-5.987,3.489-12.57,5.239-19.753,5.239c-7.185,0-13.77-1.75-19.755-5.239c-5.985-3.492-10.775-8.231-14.366-14.217
			C5009.509-5458.879,5007.712-5465.464,5007.712-5472.647z"/>
	</g>
	<rect x="3263.043" y="-1820.754" fill="#3F3F3F" width="1005.724" height="1014.224"/>
	<g>
		<circle fill="#FFFFFF" cx="3765.905" cy="-1313.642" r="375.284"/>
		<rect x="3854.013" y="-1438.18" fill="#3F3F3F" width="57.183" height="306.653"/>
		<path fill="#00D6D3" d="M3794.494-1605.447v445.03h-56.58v-26.88c-0.2,0.15-0.4,0.31-0.6,0.46c-7.38,5.71-15.35,10.82-23.9,15.34
			c-26.05,13.77-55.33,20.66-87.85,20.66c-32.53,0-61.81-6.89-87.86-20.66c-26.03-13.77-46.69-32.92-61.94-57.47
			c-15.28-24.54-22.91-52.77-22.91-84.69c0-32.13,7.63-60.4,22.91-84.85c15.25-24.45,35.91-43.56,61.94-57.33
			c7.67-4.05,15.62-7.49,23.84-10.35v58.48h0.25c-14.01,9.17-25.27,21.12-33.8,35.83c-9.79,16.86-14.68,36.26-14.68,58.22
			c0,21.74,4.89,41.11,14.68,58.06c9.77,16.96,23.13,30.22,40.11,39.8c16.95,9.58,36.2,14.37,57.75,14.37
			c21.36,0,40.52-4.79,57.47-14.37c16.95-9.58,30.34-22.84,40.11-39.8c7.52-13.05,12.16-27.51,13.88-43.39
			c0.27-2.47,0.47-4.98,0.6-7.53v-14.36c-0.13-2.57-0.33-5.1-0.6-7.59c-1.74-15.98-6.36-30.45-13.88-43.41
			c-8.54-14.73-19.84-26.69-33.86-35.86v-58.45c8.22,2.86,16.17,6.3,23.84,10.35c8.55,4.53,16.52,9.63,23.9,15.33
			c0.2,0.15,0.4,0.31,0.6,0.46v-165.4H3794.494z"/>
		<path fill="#3F3F3F" d="M3625.702-1397.932c-7.185,0-13.77-1.797-19.755-5.39c-5.985-3.59-10.775-8.38-14.368-14.366
			c-3.59-5.985-5.385-12.57-5.385-19.755c0-7.183,1.795-13.766,5.385-19.753c3.593-5.987,8.382-10.724,14.368-14.217
			c5.985-3.489,12.57-5.239,19.755-5.239c7.183,0,13.768,1.75,19.753,5.239c5.985,3.492,10.724,8.229,14.217,14.217
			c3.489,5.987,5.239,12.57,5.239,19.753c0,7.185-1.75,13.77-5.239,19.755c-3.492,5.985-8.231,10.775-14.217,14.366
			C3639.469-1399.729,3632.885-1397.932,3625.702-1397.932z"/>
		<path fill="#3F3F3F" d="M3843.246-1067.306c0-7.185,1.797-13.77,5.389-19.755c3.591-5.985,8.38-10.775,14.366-14.368
			c5.985-3.59,12.57-5.386,19.755-5.386c7.183,0,13.766,1.795,19.753,5.386c5.987,3.592,10.724,8.382,14.217,14.368
			c3.489,5.985,5.239,12.57,5.239,19.755c0,7.183-1.75,13.768-5.239,19.753c-3.492,5.985-8.229,10.724-14.217,14.217
			c-5.987,3.489-12.57,5.239-19.753,5.239c-7.185,0-13.77-1.75-19.755-5.239c-5.985-3.492-10.775-8.231-14.366-14.217
			C3845.043-1053.538,3843.246-1060.123,3843.246-1067.306z"/>
	</g>
	<rect x="3263.043" y="-682.774" fill="#3F3F3F" width="1005.724" height="1014.224"/>
	<g>
		<circle fill="#FFFFFF" cx="3765.905" cy="-175.662" r="375.284"/>
		<rect x="3854.013" y="-300.201" fill="#3F3F3F" width="57.183" height="306.653"/>
		<path fill="#3F3F3F" d="M3794.494-467.467v445.03h-56.58v-26.88c-0.2,0.15-0.4,0.31-0.6,0.46c-7.38,5.71-15.35,10.82-23.9,15.34
			c-26.05,13.77-55.33,20.66-87.85,20.66c-32.53,0-61.81-6.89-87.86-20.66c-26.03-13.77-46.69-32.92-61.94-57.47
			c-15.28-24.54-22.91-52.77-22.91-84.69c0-32.13,7.63-60.4,22.91-84.85c15.25-24.45,35.91-43.56,61.94-57.33
			c7.67-4.05,15.62-7.49,23.84-10.35v58.48h0.25c-14.01,9.17-25.27,21.12-33.8,35.83c-9.79,16.86-14.68,36.26-14.68,58.22
			c0,21.74,4.89,41.11,14.68,58.06c9.77,16.96,23.13,30.22,40.11,39.8c16.95,9.58,36.2,14.37,57.75,14.37
			c21.36,0,40.52-4.79,57.47-14.37c16.95-9.58,30.34-22.84,40.11-39.8c7.52-13.05,12.16-27.51,13.88-43.39
			c0.27-2.47,0.47-4.98,0.6-7.53v-14.36c-0.13-2.57-0.33-5.1-0.6-7.59c-1.74-15.98-6.36-30.45-13.88-43.41
			c-8.54-14.73-19.84-26.69-33.86-35.86v-58.45c8.22,2.86,16.17,6.3,23.84,10.35c8.55,4.53,16.52,9.63,23.9,15.33
			c0.2,0.15,0.4,0.31,0.6,0.46v-165.4H3794.494z"/>
		<path fill="#3F3F3F" d="M3625.702-259.952c-7.185,0-13.77-1.797-19.755-5.389c-5.985-3.59-10.775-8.38-14.368-14.366
			c-3.59-5.985-5.385-12.57-5.385-19.755c0-7.183,1.795-13.766,5.385-19.753c3.593-5.987,8.382-10.724,14.368-14.217
			c5.985-3.489,12.57-5.239,19.755-5.239c7.183,0,13.768,1.75,19.753,5.239c5.985,3.492,10.724,8.229,14.217,14.217
			c3.489,5.987,5.239,12.57,5.239,19.753c0,7.185-1.75,13.77-5.239,19.755c-3.492,5.985-8.231,10.775-14.217,14.366
			C3639.469-261.749,3632.885-259.952,3625.702-259.952z"/>
		<path fill="#3F3F3F" d="M3843.246,70.674c0-7.185,1.797-13.77,5.389-19.755c3.591-5.985,8.38-10.775,14.366-14.368
			c5.985-3.59,12.57-5.386,19.755-5.386c7.183,0,13.766,1.795,19.753,5.386c5.987,3.592,10.724,8.382,14.217,14.368
			c3.489,5.985,5.239,12.57,5.239,19.755c0,7.183-1.75,13.768-5.239,19.753c-3.492,5.985-8.229,10.724-14.217,14.217
			c-5.987,3.489-12.57,5.239-19.753,5.239c-7.185,0-13.77-1.75-19.755-5.239c-5.985-3.492-10.775-8.231-14.366-14.217
			C3845.043,84.442,3843.246,77.857,3843.246,70.674z"/>
	</g>
	<path fill="#FFFFFF" d="M4930.371-6149.276c-237.639,0-430.293,192.655-430.293,430.293s192.655,430.293,430.293,430.293
		c237.639,0,430.293-192.655,430.293-430.293S5168.01-6149.276,4930.371-6149.276z M4930.371-5343.699
		c-207.266,0-375.284-168.018-375.284-375.284s168.018-375.284,375.284-375.284c207.266,0,375.284,168.018,375.284,375.284
		S5137.637-5343.699,4930.371-5343.699z"/>
	<rect x="4427.509" y="-5122.774" fill="#3F3F3F" width="1005.724" height="1014.224"/>
	<path fill="#00D6D3" d="M4930.371-5045.956c-237.639,0-430.293,192.655-430.293,430.293c0,237.639,192.655,430.293,430.293,430.293
		s430.293-192.654,430.293-430.293C5360.664-4853.301,5168.009-5045.956,4930.371-5045.956z M4930.371-4240.378
		c-207.266,0-375.284-168.018-375.284-375.284c0-207.265,168.018-375.283,375.284-375.283
		c207.266,0,375.284,168.018,375.284,375.283C5305.655-4408.396,5137.636-4240.378,4930.371-4240.378z"/>
	<g>
		<circle fill="#3F3F3F" cx="4930.371" cy="-4615.662" r="375.284"/>
		<rect x="5018.479" y="-4740.201" fill="#FFFFFF" width="57.183" height="306.653"/>
		<path fill="#00D6D3" d="M4958.96-4907.467v445.03h-56.58v-26.88c-0.2,0.15-0.4,0.31-0.6,0.46c-7.38,5.71-15.35,10.82-23.9,15.34
			c-26.05,13.77-55.33,20.66-87.85,20.66c-32.53,0-61.81-6.89-87.86-20.66c-26.03-13.77-46.69-32.92-61.94-57.47
			c-15.28-24.54-22.91-52.77-22.91-84.69c0-32.13,7.63-60.4,22.91-84.85c15.25-24.45,35.91-43.56,61.94-57.33
			c7.67-4.05,15.62-7.49,23.84-10.35v58.48h0.25c-14.01,9.17-25.27,21.12-33.8,35.83c-9.79,16.86-14.68,36.26-14.68,58.22
			c0,21.74,4.89,41.11,14.68,58.06c9.77,16.96,23.13,30.22,40.11,39.8c16.95,9.58,36.2,14.37,57.75,14.37
			c21.36,0,40.52-4.79,57.47-14.37c16.95-9.58,30.34-22.84,40.11-39.8c7.52-13.05,12.16-27.51,13.88-43.39
			c0.27-2.47,0.47-4.98,0.6-7.53v-14.36c-0.13-2.57-0.33-5.1-0.6-7.59c-1.74-15.98-6.36-30.45-13.88-43.41
			c-8.54-14.73-19.84-26.69-33.86-35.86v-58.45c8.22,2.86,16.17,6.3,23.84,10.35c8.55,4.53,16.52,9.63,23.9,15.33
			c0.2,0.15,0.4,0.31,0.6,0.46v-165.4H4958.96z"/>
		<path fill="#FFFFFF" d="M4790.167-4699.952c-7.185,0-13.77-1.797-19.755-5.39c-5.985-3.59-10.775-8.38-14.367-14.366
			c-3.591-5.985-5.386-12.57-5.386-19.755c0-7.183,1.795-13.766,5.386-19.753c3.592-5.987,8.382-10.724,14.367-14.217
			c5.986-3.489,12.571-5.239,19.755-5.239c7.183,0,13.768,1.75,19.753,5.239c5.985,3.493,10.724,8.229,14.216,14.217
			c3.489,5.987,5.239,12.57,5.239,19.753c0,7.185-1.75,13.77-5.239,19.755c-3.492,5.985-8.231,10.775-14.216,14.366
			C4803.936-4701.75,4797.35-4699.952,4790.167-4699.952z"/>
		<path fill="#FFFFFF" d="M5007.712-4369.326c0-7.185,1.797-13.77,5.39-19.755c3.59-5.985,8.38-10.775,14.366-14.368
			c5.985-3.59,12.57-5.386,19.755-5.386c7.183,0,13.766,1.795,19.753,5.386c5.987,3.592,10.724,8.382,14.217,14.368
			c3.489,5.985,5.239,12.57,5.239,19.755c0,7.183-1.75,13.768-5.239,19.753c-3.493,5.985-8.229,10.724-14.217,14.217
			c-5.987,3.488-12.57,5.238-19.753,5.238c-7.185,0-13.77-1.75-19.755-5.238c-5.985-3.493-10.775-8.231-14.366-14.217
			C5009.509-4355.558,5007.712-4362.143,5007.712-4369.326z"/>
	</g>
	<rect x="4427.509" y="-4024.089" fill="#3F3F3F" width="1005.724" height="1014.224"/>
	<path fill="#FFFFFF" d="M4930.371-3947.271c-237.639,0-430.293,192.655-430.293,430.293c0,237.639,192.655,430.293,430.293,430.293
		s430.293-192.655,430.293-430.293C5360.664-3754.616,5168.009-3947.271,4930.371-3947.271z M4930.371-3141.693
		c-207.266,0-375.284-168.018-375.284-375.284c0-207.265,168.018-375.283,375.284-375.283
		c207.266,0,375.284,168.018,375.284,375.283C5305.655-3309.711,5137.636-3141.693,4930.371-3141.693z"/>
	<g>
		<circle fill="#3F3F3F" cx="4930.371" cy="-3516.977" r="375.284"/>
		<rect x="5018.479" y="-3641.516" fill="#FFFFFF" width="57.183" height="306.653"/>
		<path fill="#FFFFFF" d="M4958.96-3808.782v445.03h-56.58v-26.88c-0.2,0.15-0.4,0.31-0.6,0.46c-7.38,5.71-15.35,10.82-23.9,15.34
			c-26.05,13.77-55.33,20.66-87.85,20.66c-32.53,0-61.81-6.89-87.86-20.66c-26.03-13.77-46.69-32.92-61.94-57.47
			c-15.28-24.54-22.91-52.77-22.91-84.69c0-32.13,7.63-60.4,22.91-84.85c15.25-24.45,35.91-43.56,61.94-57.33
			c7.67-4.05,15.62-7.49,23.84-10.35v58.48h0.25c-14.01,9.17-25.27,21.12-33.8,35.83c-9.79,16.86-14.68,36.26-14.68,58.22
			c0,21.74,4.89,41.11,14.68,58.06c9.77,16.96,23.13,30.22,40.11,39.8c16.95,9.58,36.2,14.37,57.75,14.37
			c21.36,0,40.52-4.79,57.47-14.37c16.95-9.58,30.34-22.84,40.11-39.8c7.52-13.05,12.16-27.51,13.88-43.39
			c0.27-2.47,0.47-4.98,0.6-7.53v-14.36c-0.13-2.57-0.33-5.1-0.6-7.59c-1.74-15.98-6.36-30.45-13.88-43.41
			c-8.54-14.73-19.84-26.69-33.86-35.86v-58.45c8.22,2.86,16.17,6.3,23.84,10.35c8.55,4.53,16.52,9.63,23.9,15.33
			c0.2,0.15,0.4,0.31,0.6,0.46v-165.4H4958.96z"/>
		<path fill="#FFFFFF" d="M4790.167-3601.267c-7.185,0-13.77-1.797-19.755-5.389c-5.985-3.591-10.775-8.38-14.367-14.366
			c-3.591-5.985-5.386-12.571-5.386-19.755c0-7.183,1.795-13.766,5.386-19.753c3.592-5.987,8.382-10.724,14.367-14.217
			c5.986-3.489,12.571-5.239,19.755-5.239c7.183,0,13.768,1.75,19.753,5.239c5.985,3.492,10.724,8.229,14.216,14.217
			c3.489,5.987,5.239,12.571,5.239,19.753c0,7.185-1.75,13.77-5.239,19.755c-3.492,5.985-8.231,10.775-14.216,14.366
			C4803.936-3603.064,4797.35-3601.267,4790.167-3601.267z"/>
		<path fill="#FFFFFF" d="M5007.712-3270.641c0-7.185,1.797-13.77,5.39-19.755c3.59-5.985,8.38-10.775,14.366-14.367
			c5.985-3.591,12.57-5.386,19.755-5.386c7.183,0,13.766,1.795,19.753,5.386c5.987,3.592,10.724,8.382,14.217,14.367
			c3.489,5.985,5.239,12.57,5.239,19.755c0,7.183-1.75,13.768-5.239,19.753c-3.493,5.986-8.229,10.724-14.217,14.217
			c-5.987,3.489-12.57,5.239-19.753,5.239c-7.185,0-13.77-1.75-19.755-5.239c-5.985-3.492-10.775-8.231-14.366-14.217
			C5009.509-3256.873,5007.712-3263.458,5007.712-3270.641z"/>
	</g>
	<g>
		<circle fill="#00D6D3" cx="4930.371" cy="-2425.642" r="375.284"/>
		<rect x="5018.479" y="-2550.18" fill="#3F3F3F" width="57.183" height="306.653"/>
		<path fill="#FFFFFF" d="M4958.96-2717.447v445.03h-56.58v-26.88c-0.2,0.15-0.4,0.31-0.6,0.46c-7.38,5.71-15.35,10.82-23.9,15.34
			c-26.05,13.77-55.33,20.66-87.85,20.66c-32.53,0-61.81-6.89-87.86-20.66c-26.03-13.77-46.69-32.92-61.94-57.47
			c-15.28-24.54-22.91-52.77-22.91-84.69c0-32.13,7.63-60.4,22.91-84.85c15.25-24.45,35.91-43.56,61.94-57.33
			c7.67-4.05,15.62-7.49,23.84-10.35v58.48h0.25c-14.01,9.17-25.27,21.12-33.8,35.83c-9.79,16.86-14.68,36.26-14.68,58.22
			c0,21.74,4.89,41.11,14.68,58.06c9.77,16.96,23.13,30.22,40.11,39.8c16.95,9.58,36.2,14.37,57.75,14.37
			c21.36,0,40.52-4.79,57.47-14.37c16.95-9.58,30.34-22.84,40.11-39.8c7.52-13.05,12.16-27.51,13.88-43.39
			c0.27-2.47,0.47-4.98,0.6-7.53v-14.36c-0.13-2.57-0.33-5.1-0.6-7.59c-1.74-15.98-6.36-30.45-13.88-43.41
			c-8.54-14.73-19.84-26.69-33.86-35.86v-58.45c8.22,2.86,16.17,6.3,23.84,10.35c8.55,4.53,16.52,9.63,23.9,15.33
			c0.2,0.15,0.4,0.31,0.6,0.46v-165.4H4958.96z"/>
		<path fill="#3F3F3F" d="M4790.167-2509.932c-7.185,0-13.77-1.797-19.755-5.389c-5.985-3.59-10.775-8.38-14.367-14.366
			c-3.591-5.985-5.386-12.57-5.386-19.755c0-7.183,1.795-13.766,5.386-19.753c3.592-5.987,8.382-10.724,14.367-14.217
			c5.985-3.489,12.571-5.239,19.755-5.239c7.183,0,13.768,1.75,19.753,5.239c5.985,3.492,10.724,8.229,14.216,14.217
			c3.489,5.987,5.239,12.57,5.239,19.753c0,7.185-1.75,13.77-5.239,19.755c-3.492,5.986-8.231,10.775-14.216,14.366
			C4803.936-2511.729,4797.35-2509.932,4790.167-2509.932z"/>
		<path fill="#3F3F3F" d="M5007.712-2179.306c0-7.185,1.797-13.77,5.39-19.755c3.59-5.986,8.38-10.775,14.366-14.368
			c5.985-3.591,12.57-5.386,19.755-5.386c7.183,0,13.766,1.795,19.753,5.386c5.987,3.592,10.724,8.382,14.217,14.368
			c3.489,5.985,5.238,12.57,5.238,19.755c0,7.183-1.75,13.768-5.238,19.753c-3.493,5.985-8.229,10.724-14.217,14.217
			c-5.987,3.489-12.57,5.239-19.753,5.239c-7.185,0-13.77-1.75-19.755-5.239c-5.985-3.492-10.775-8.231-14.366-14.217
			C5009.509-2165.538,5007.712-2172.123,5007.712-2179.306z"/>
	</g>
	<path fill="#3F3F3F" d="M4930.371-2855.935c-237.639,0-430.293,192.655-430.293,430.293c0,237.639,192.655,430.293,430.293,430.293
		s430.293-192.655,430.293-430.293C5360.664-2663.281,5168.009-2855.935,4930.371-2855.935z M4930.371-2050.358
		c-207.266,0-375.284-168.018-375.284-375.284c0-207.265,168.018-375.283,375.284-375.283
		c207.266,0,375.284,168.018,375.284,375.283C5305.655-2218.376,5137.636-2050.358,4930.371-2050.358z"/>
	<g>
		<circle fill="#00D6D3" cx="6082.371" cy="-2425.642" r="491.633"/>
		<rect x="6197.795" y="-2588.791" fill="#3F3F3F" width="74.912" height="401.724"/>
		<path fill="#FFFFFF" d="M6119.823-2807.915v583.002h-74.122v-35.214c-0.262,0.197-0.524,0.406-0.786,0.603
			c-9.668,7.48-20.109,14.175-31.31,20.096c-34.126,18.039-72.484,27.065-115.086,27.065c-42.615,0-80.973-9.026-115.099-27.065
			c-34.1-18.039-61.166-43.126-81.144-75.287c-20.017-32.148-30.013-69.13-30.013-110.947c0-42.091,9.996-79.126,30.013-111.156
			c19.978-32.031,47.043-57.065,81.144-75.104c10.048-5.306,20.462-9.812,31.231-13.559v76.611h0.328
			c-18.354,12.013-33.104,27.668-44.279,46.938c-12.825,22.087-19.231,47.502-19.231,76.27c0,28.48,6.406,53.855,19.231,76.06
			c12.799,22.218,30.301,39.589,52.545,52.139c22.205,12.55,47.423,18.825,75.654,18.825c27.982,0,53.082-6.275,75.287-18.825
			c22.205-12.55,39.747-29.921,52.545-52.139c9.852-17.096,15.93-36.039,18.183-56.842c0.354-3.236,0.616-6.524,0.786-9.865v-18.812
			c-0.17-3.367-0.432-6.681-0.786-9.943c-2.279-20.934-8.332-39.89-18.183-56.868c-11.188-19.297-25.991-34.965-44.357-46.977
			v-76.572c10.769,3.747,21.183,8.253,31.231,13.559c11.201,5.935,21.642,12.616,31.31,20.083c0.262,0.197,0.524,0.406,0.786,0.603
			v-216.679H6119.823z"/>
		<path fill="#3F3F3F" d="M5898.7-2536.064c-9.412,0-18.039-2.354-25.88-7.061c-7.841-4.704-14.116-10.978-18.822-18.819
			c-4.704-7.841-7.055-16.468-7.055-25.88c0-9.41,2.352-18.034,7.055-25.877c4.706-7.844,10.981-14.049,18.822-18.625
			c7.841-4.57,16.468-6.863,25.88-6.863c9.41,0,18.037,2.292,25.877,6.863c7.841,4.575,14.049,10.781,18.625,18.625
			c4.57,7.843,6.863,16.468,6.863,25.877c0,9.412-2.293,18.039-6.863,25.88c-4.575,7.841-10.784,14.116-18.625,18.819
			C5916.737-2538.419,5908.11-2536.064,5898.7-2536.064z"/>
		<path fill="#3F3F3F" d="M6183.69-2102.934c0-9.412,2.354-18.039,7.061-25.88c4.704-7.841,10.979-14.116,18.819-18.822
			c7.841-4.704,16.468-7.055,25.88-7.055c9.41,0,18.034,2.352,25.877,7.055c7.844,4.706,14.049,10.981,18.625,18.822
			c4.57,7.841,6.863,16.468,6.863,25.88c0,9.41-2.293,18.036-6.863,25.877c-4.575,7.841-10.781,14.049-18.625,18.624
			c-7.843,4.57-16.468,6.863-25.877,6.863c-9.412,0-18.039-2.293-25.88-6.863c-7.841-4.575-14.116-10.783-18.819-18.624
			C6186.044-2084.898,6183.69-2093.525,6183.69-2102.934z"/>
	</g>
	<g>
		<circle fill="#FFFFFF" cx="4930.371" cy="-1313.642" r="375.284"/>
		<rect x="5018.479" y="-1438.18" fill="#3F3F3F" width="57.183" height="306.653"/>
		<path fill="#00D6D3" d="M4958.96-1605.447v445.03h-56.58v-26.88c-0.2,0.15-0.4,0.31-0.6,0.46c-7.38,5.71-15.35,10.82-23.9,15.34
			c-26.05,13.77-55.33,20.66-87.85,20.66c-32.53,0-61.81-6.89-87.86-20.66c-26.03-13.77-46.69-32.92-61.94-57.47
			c-15.28-24.54-22.91-52.77-22.91-84.69c0-32.13,7.63-60.4,22.91-84.85c15.25-24.45,35.91-43.56,61.94-57.33
			c7.67-4.05,15.62-7.49,23.84-10.35v58.48h0.25c-14.01,9.17-25.27,21.12-33.8,35.83c-9.79,16.86-14.68,36.26-14.68,58.22
			c0,21.74,4.89,41.11,14.68,58.06c9.77,16.96,23.13,30.22,40.11,39.8c16.95,9.58,36.2,14.37,57.75,14.37
			c21.36,0,40.52-4.79,57.47-14.37c16.95-9.58,30.34-22.84,40.11-39.8c7.52-13.05,12.16-27.51,13.88-43.39
			c0.27-2.47,0.47-4.98,0.6-7.53v-14.36c-0.13-2.57-0.33-5.1-0.6-7.59c-1.74-15.98-6.36-30.45-13.88-43.41
			c-8.54-14.73-19.84-26.69-33.86-35.86v-58.45c8.22,2.86,16.17,6.3,23.84,10.35c8.55,4.53,16.52,9.63,23.9,15.33
			c0.2,0.15,0.4,0.31,0.6,0.46v-165.4H4958.96z"/>
		<path fill="#3F3F3F" d="M4790.167-1397.932c-7.185,0-13.77-1.797-19.755-5.39c-5.985-3.59-10.775-8.38-14.367-14.366
			c-3.591-5.985-5.386-12.57-5.386-19.755c0-7.183,1.795-13.766,5.386-19.753c3.592-5.987,8.382-10.724,14.367-14.217
			c5.986-3.489,12.571-5.239,19.755-5.239c7.183,0,13.768,1.75,19.753,5.239c5.985,3.492,10.724,8.229,14.216,14.217
			c3.489,5.987,5.239,12.57,5.239,19.753c0,7.185-1.75,13.77-5.239,19.755c-3.492,5.985-8.231,10.775-14.216,14.366
			C4803.936-1399.729,4797.35-1397.932,4790.167-1397.932z"/>
		<path fill="#3F3F3F" d="M5007.712-1067.306c0-7.185,1.797-13.77,5.39-19.755c3.59-5.985,8.38-10.775,14.366-14.368
			c5.985-3.59,12.57-5.386,19.755-5.386c7.183,0,13.766,1.795,19.753,5.386c5.987,3.592,10.724,8.382,14.217,14.368
			c3.489,5.985,5.239,12.57,5.239,19.755c0,7.183-1.75,13.768-5.239,19.753c-3.493,5.985-8.229,10.724-14.217,14.217
			c-5.987,3.489-12.57,5.239-19.753,5.239c-7.185,0-13.77-1.75-19.755-5.239c-5.985-3.492-10.775-8.231-14.366-14.217
			C5009.509-1053.538,5007.712-1060.123,5007.712-1067.306z"/>
	</g>
	<path fill="#00D6D3" d="M4930.371-1743.935c-237.639,0-430.293,192.655-430.293,430.293s192.655,430.293,430.293,430.293
		s430.293-192.655,430.293-430.293S5168.009-1743.935,4930.371-1743.935z M4930.371-938.358
		c-207.266,0-375.284-168.018-375.284-375.284c0-207.266,168.018-375.284,375.284-375.284
		c207.266,0,375.284,168.018,375.284,375.284C5305.655-1106.376,5137.636-938.358,4930.371-938.358z"/>
	<g>
		<circle fill="#FFFFFF" cx="6082.371" cy="-1313.642" r="470.682"/>
		<rect x="6192.876" y="-1469.839" fill="#3F3F3F" width="71.719" height="384.605"/>
		<path fill="#00D6D3" d="M6118.228-1679.625v558.158h-70.963v-33.713c-0.25,0.188-0.501,0.389-0.752,0.577
			c-9.256,7.161-19.252,13.571-29.975,19.24c-32.672,17.27-69.396,25.912-110.182,25.912c-40.799,0-77.522-8.641-110.194-25.912
			c-32.647-17.271-58.559-41.288-77.686-72.079c-19.164-30.778-28.734-66.184-28.734-106.219c0-40.297,9.57-75.754,28.734-106.419
			c19.126-30.665,45.039-54.633,77.686-71.904c9.62-5.08,19.59-9.394,29.9-12.981v73.346h0.313
			c-17.571,11.501-31.694,26.489-42.392,44.938c-12.278,21.146-18.412,45.477-18.412,73.02c0,27.267,6.133,51.561,18.412,72.819
			c12.253,21.271,29.01,37.902,50.306,49.917c21.259,12.015,45.402,18.023,72.43,18.023c26.79,0,50.82-6.008,72.079-18.023
			c21.259-12.015,38.053-28.646,50.306-49.917c9.432-16.367,15.251-34.503,17.408-54.42c0.339-3.098,0.59-6.246,0.752-9.444v-18.01
			c-0.163-3.223-0.414-6.396-0.752-9.519c-2.182-20.042-7.977-38.19-17.408-54.445c-10.711-18.474-24.883-33.475-42.467-44.976
			v-73.308c10.31,3.587,20.281,7.901,29.9,12.981c10.723,5.682,20.719,12.078,29.975,19.227c0.251,0.188,0.502,0.389,0.752,0.577
			v-207.445H6118.228z"/>
		<path fill="#3F3F3F" d="M5906.527-1419.359c-9.011,0-17.27-2.254-24.777-6.76c-7.507-4.503-13.514-10.511-18.02-18.017
			c-4.503-7.507-6.755-15.766-6.755-24.777c0-9.009,2.252-17.265,6.755-24.775c4.506-7.509,10.513-13.45,18.02-17.831
			c7.507-4.375,15.766-6.57,24.777-6.57c9.009,0,17.268,2.195,24.774,6.57c7.507,4.38,13.451,10.321,17.831,17.831
			c4.375,7.509,6.57,15.766,6.57,24.775c0,9.011-2.195,17.27-6.57,24.777c-4.38,7.507-10.324,13.514-17.831,18.017
			C5923.795-1421.613,5915.536-1419.359,5906.527-1419.359z"/>
		<path fill="#3F3F3F" d="M6179.373-1004.686c0-9.011,2.254-17.27,6.759-24.777c4.503-7.507,10.511-13.514,18.018-18.02
			c7.507-4.503,15.766-6.755,24.777-6.755c9.009,0,17.266,2.252,24.775,6.755c7.509,4.505,13.45,10.513,17.831,18.02
			c4.375,7.507,6.57,15.766,6.57,24.777c0,9.009-2.195,17.268-6.57,24.775c-4.38,7.507-10.321,13.45-17.831,17.831
			c-7.509,4.375-15.766,6.57-24.775,6.57c-9.011,0-17.27-2.195-24.777-6.57c-7.507-4.38-13.514-10.324-18.018-17.831
			C6181.626-987.419,6179.373-995.678,6179.373-1004.686z"/>
	</g>
	<g>
		<circle fill="#FFFFFF" cx="4930.371" cy="-175.662" r="375.284"/>
		<rect x="5018.479" y="-300.201" fill="#3F3F3F" width="57.183" height="306.653"/>
		<path fill="#3F3F3F" d="M4958.96-467.467v445.03h-56.58v-26.88c-0.2,0.15-0.4,0.31-0.6,0.46c-7.38,5.71-15.35,10.82-23.9,15.34
			c-26.05,13.77-55.33,20.66-87.85,20.66c-32.53,0-61.81-6.89-87.86-20.66c-26.03-13.77-46.69-32.92-61.94-57.47
			c-15.28-24.54-22.91-52.77-22.91-84.69c0-32.13,7.63-60.4,22.91-84.85c15.25-24.45,35.91-43.56,61.94-57.33
			c7.67-4.05,15.62-7.49,23.84-10.35v58.48h0.25c-14.01,9.17-25.27,21.12-33.8,35.83c-9.79,16.86-14.68,36.26-14.68,58.22
			c0,21.74,4.89,41.11,14.68,58.06c9.77,16.96,23.13,30.22,40.11,39.8c16.95,9.58,36.2,14.37,57.75,14.37
			c21.36,0,40.52-4.79,57.47-14.37c16.95-9.58,30.34-22.84,40.11-39.8c7.52-13.05,12.16-27.51,13.88-43.39
			c0.27-2.47,0.47-4.98,0.6-7.53v-14.36c-0.13-2.57-0.33-5.1-0.6-7.59c-1.74-15.98-6.36-30.45-13.88-43.41
			c-8.54-14.73-19.84-26.69-33.86-35.86v-58.45c8.22,2.86,16.17,6.3,23.84,10.35c8.55,4.53,16.52,9.63,23.9,15.33
			c0.2,0.15,0.4,0.31,0.6,0.46v-165.4H4958.96z"/>
		<path fill="#3F3F3F" d="M4790.167-259.952c-7.185,0-13.77-1.797-19.755-5.389c-5.985-3.59-10.775-8.38-14.367-14.366
			c-3.591-5.985-5.386-12.57-5.386-19.755c0-7.183,1.795-13.766,5.386-19.753c3.592-5.987,8.382-10.724,14.367-14.217
			c5.985-3.489,12.571-5.239,19.755-5.239c7.183,0,13.768,1.75,19.753,5.239c5.985,3.492,10.724,8.229,14.216,14.217
			c3.489,5.987,5.239,12.57,5.239,19.753c0,7.185-1.75,13.77-5.239,19.755c-3.492,5.985-8.231,10.775-14.216,14.366
			C4803.936-261.749,4797.35-259.952,4790.167-259.952z"/>
		<path fill="#3F3F3F" d="M5007.712,70.674c0-7.185,1.797-13.77,5.39-19.755c3.59-5.985,8.38-10.775,14.366-14.368
			c5.985-3.59,12.57-5.386,19.755-5.386c7.183,0,13.766,1.795,19.753,5.386c5.987,3.592,10.724,8.382,14.217,14.368
			c3.489,5.985,5.238,12.57,5.238,19.755c0,7.183-1.75,13.768-5.238,19.753c-3.493,5.985-8.229,10.724-14.217,14.217
			c-5.987,3.489-12.57,5.239-19.753,5.239c-7.185,0-13.77-1.75-19.755-5.239c-5.985-3.492-10.775-8.231-14.366-14.217
			C5009.509,84.442,5007.712,77.857,5007.712,70.674z"/>
	</g>
	<g opacity="0.05">
		<rect x="-391.518" y="-63.921" fill="#3F3F3F" width="17.409" height="93.357"/>
		<path fill="#3F3F3F" d="M-409.638-114.843V20.64h-17.225v-8.183c-0.061,0.046-0.122,0.094-0.183,0.14
			c-2.247,1.738-4.673,3.294-7.276,4.67c-7.931,4.192-16.845,6.29-26.745,6.29c-9.903,0-18.817-2.098-26.748-6.29
			c-7.924-4.192-14.214-10.022-18.857-17.496c-4.652-7.471-6.975-16.065-6.975-25.783c0-9.782,2.323-18.388,6.975-25.831
			c4.643-7.444,10.932-13.261,18.857-17.453c2.335-1.233,4.755-2.28,7.258-3.151v17.803h0.076c-4.265,2.792-7.693,6.43-10.29,10.908
			c-2.98,5.133-4.469,11.039-4.469,17.724c0,6.618,1.489,12.515,4.469,17.676c2.974,5.163,7.042,9.2,12.211,12.117
			c5.16,2.916,11.021,4.375,17.581,4.375c6.503,0,12.336-1.458,17.496-4.375c5.16-2.917,9.237-6.953,12.211-12.117
			c2.289-3.973,3.702-8.375,4.226-13.209c0.082-0.752,0.143-1.516,0.183-2.292v-4.372c-0.04-0.782-0.1-1.553-0.183-2.311
			c-0.53-4.865-1.936-9.27-4.226-13.216c-2.6-4.484-6.04-8.125-10.308-10.917v-17.794c2.503,0.871,4.923,1.918,7.258,3.151
			c2.603,1.379,5.029,2.932,7.276,4.667c0.061,0.046,0.122,0.094,0.183,0.14v-50.354H-409.638z"/>
		<path fill="#3F3F3F" d="M-461.025-51.668c-2.187,0-4.192-0.547-6.014-1.641c-1.822-1.093-3.28-2.551-4.374-4.373
			c-1.093-1.822-1.64-3.827-1.64-6.014c0-2.187,0.547-4.191,1.64-6.014c1.094-1.823,2.552-3.265,4.374-4.328
			c1.822-1.062,3.827-1.595,6.014-1.595c2.187,0,4.191,0.533,6.014,1.595c1.822,1.063,3.265,2.505,4.328,4.328
			c1.062,1.823,1.595,3.827,1.595,6.014c0,2.187-0.533,4.192-1.595,6.014c-1.063,1.822-2.506,3.28-4.328,4.373
			C-456.833-52.215-458.838-51.668-461.025-51.668z"/>
		<path fill="#3F3F3F" d="M-394.796,48.987c0-2.187,0.547-4.192,1.641-6.014c1.093-1.822,2.551-3.28,4.373-4.374
			c1.822-1.093,3.827-1.64,6.014-1.64c2.187,0,4.191,0.547,6.014,1.64c1.823,1.094,3.265,2.552,4.328,4.374
			c1.062,1.822,1.595,3.827,1.595,6.014c0,2.187-0.533,4.191-1.595,6.014c-1.063,1.822-2.505,3.265-4.328,4.328
			c-1.823,1.062-3.827,1.595-6.014,1.595c-2.187,0-4.192-0.533-6.014-1.595c-1.822-1.063-3.28-2.506-4.373-4.328
			C-394.249,53.178-394.796,51.173-394.796,48.987z"/>
	</g>
	<path fill="#3F3F3F" d="M4930.371-605.955c-237.639,0-430.293,192.655-430.293,430.293s192.655,430.293,430.293,430.293
		s430.293-192.655,430.293-430.293S5168.009-605.955,4930.371-605.955z M4930.371,199.622
		c-207.266,0-375.284-168.018-375.284-375.284c0-207.265,168.018-375.284,375.284-375.284
		c207.266,0,375.284,168.018,375.284,375.284C5305.655,31.604,5137.636,199.622,4930.371,199.622z"/>
	<g>
		<circle fill="#3F3F3F" cx="4087.47" cy="-7986.983" r="593.632"/>
		<rect x="4226.842" y="-8183.981" fill="#FFFFFF" width="90.453" height="485.07"/>
		<path fill="#00D6D3" d="M4132.693-8448.566v703.958h-89.5v-42.52c-0.316,0.237-0.633,0.491-0.949,0.728
			c-11.674,9.032-24.281,17.116-37.806,24.265c-41.207,21.782-87.522,32.681-138.963,32.681c-51.457,0-97.772-10.899-138.979-32.681
			c-41.175-21.781-73.855-52.073-97.978-90.907c-24.17-38.817-36.24-83.472-36.24-133.964c0-50.824,12.07-95.542,36.24-134.217
			c24.123-38.675,56.803-68.904,97.978-90.686c12.132-6.406,24.708-11.848,37.71-16.372v92.505h0.396
			c-22.161,14.505-39.973,33.408-53.466,56.677c-15.486,26.669-23.221,57.356-23.221,92.093c0,34.389,7.735,65.029,23.221,91.841
			c15.454,26.827,36.587,47.802,63.447,62.956c26.812,15.154,57.262,22.731,91.35,22.731c33.788,0,64.095-7.577,90.907-22.731
			c26.812-15.154,47.993-36.129,63.447-62.956c11.895-20.643,19.235-43.516,21.956-68.635c0.427-3.907,0.743-7.877,0.949-11.911
			v-22.715c-0.206-4.065-0.522-8.067-0.949-12.006c-2.753-25.277-10.061-48.166-21.956-68.667
			c-13.509-23.3-31.383-42.219-53.561-56.724v-92.458c13.003,4.524,25.578,9.966,37.711,16.372
			c13.525,7.165,26.132,15.232,37.806,24.249c0.316,0.237,0.633,0.49,0.949,0.728v-261.633H4132.693z"/>
		<path fill="#FFFFFF" d="M3865.694-8120.315c-11.365,0-21.781-2.843-31.249-8.525c-9.468-5.68-17.044-13.256-22.727-22.724
			c-5.679-9.468-8.519-19.884-8.519-31.25c0-11.362,2.84-21.775,8.519-31.246c5.682-9.471,13.259-16.964,22.727-22.488
			c9.468-5.519,19.884-8.287,31.249-8.287c11.362,0,21.778,2.769,31.246,8.287c9.468,5.524,16.964,13.018,22.488,22.488
			c5.519,9.471,8.287,19.884,8.287,31.246c0,11.365-2.768,21.782-8.287,31.25c-5.524,9.468-13.02,17.044-22.488,22.724
			C3887.472-8123.158,3877.056-8120.315,3865.694-8120.315z"/>
		<path fill="#FFFFFF" d="M4209.811-7597.324c0-11.365,2.843-21.781,8.525-31.249c5.679-9.468,13.256-17.044,22.724-22.727
			c9.468-5.68,19.884-8.519,31.249-8.519c11.362,0,21.775,2.839,31.246,8.519c9.471,5.683,16.964,13.259,22.488,22.727
			c5.519,9.468,8.287,19.884,8.287,31.249c0,11.362-2.768,21.778-8.287,31.246c-5.524,9.468-13.018,16.964-22.488,22.488
			c-9.471,5.518-19.884,8.287-31.246,8.287c-11.365,0-21.781-2.769-31.249-8.287c-9.468-5.524-17.044-13.021-22.724-22.488
			C4212.653-7575.546,4209.811-7585.962,4209.811-7597.324z"/>
	</g>
	<rect x="586.434" y="-1820.754" fill="#3F3F3F" width="2525.132" height="1014.224"/>
	<rect x="586.434" y="-682.774" fill="#3F3F3F" width="2525.132" height="1014.224"/>
	<g>
		<path fill="#3F3F3F" d="M956.928-5881.992c7.185,0,13.77,1.797,19.755,5.39c5.985,3.59,10.775,8.38,14.368,14.366
			c3.59,5.985,5.386,12.57,5.386,19.755c0,7.183-1.795,13.766-5.386,19.753c-3.592,5.987-8.382,10.724-14.368,14.216
			c-5.985,3.489-12.57,5.239-19.755,5.239c-7.183,0-13.768-1.75-19.753-5.239c-5.985-3.492-10.724-8.229-14.217-14.216
			c-3.489-5.987-5.239-12.571-5.239-19.753c0-7.185,1.75-13.77,5.239-19.755c3.492-5.986,8.231-10.775,14.217-14.366
			C943.16-5880.195,949.745-5881.992,956.928-5881.992z"/>
		<circle fill="#00D6D3" cx="2527.182" cy="-5718.983" r="375.284"/>
		<path fill="#FFFFFF" d="M2555.771-6010.788v445.03h-56.58v-26.88c-0.2,0.15-0.4,0.31-0.6,0.46c-7.38,5.71-15.35,10.82-23.9,15.34
			c-26.05,13.77-55.33,20.66-87.85,20.66c-32.53,0-61.81-6.89-87.86-20.66c-26.03-13.77-46.69-32.92-61.94-57.47
			c-15.28-24.54-22.91-52.77-22.91-84.69c0-32.13,7.63-60.4,22.91-84.85c15.25-24.45,35.91-43.56,61.94-57.33
			c7.67-4.05,15.62-7.49,23.84-10.35v58.48h0.25c-14.01,9.17-25.27,21.12-33.8,35.83c-9.79,16.86-14.68,36.26-14.68,58.22
			c0,21.74,4.89,41.11,14.68,58.06c9.77,16.96,23.13,30.22,40.11,39.8c16.95,9.58,36.2,14.37,57.75,14.37
			c21.36,0,40.52-4.79,57.47-14.37s30.34-22.84,40.11-39.8c7.52-13.05,12.16-27.51,13.88-43.39c0.27-2.47,0.47-4.98,0.6-7.53v-14.36
			c-0.13-2.57-0.33-5.1-0.6-7.59c-1.74-15.98-6.36-30.45-13.88-43.41c-8.54-14.73-19.84-26.69-33.86-35.86v-58.45
			c8.22,2.86,16.17,6.3,23.84,10.35c8.55,4.53,16.52,9.63,23.9,15.33c0.2,0.15,0.4,0.31,0.6,0.46v-165.4H2555.771z"/>
		<g>
			<rect x="2615.291" y="-5843.521" fill="#3F3F3F" width="57.183" height="306.653"/>
			<path fill="#3F3F3F" d="M2386.979-5803.273c-7.185,0-13.77-1.797-19.755-5.389c-5.985-3.591-10.775-8.38-14.367-14.366
				c-3.591-5.985-5.386-12.571-5.386-19.755c0-7.183,1.795-13.766,5.386-19.753c3.592-5.987,8.382-10.724,14.367-14.216
				c5.985-3.489,12.571-5.239,19.755-5.239c7.183,0,13.768,1.75,19.753,5.239c5.985,3.492,10.724,8.229,14.217,14.216
				c3.489,5.987,5.239,12.571,5.239,19.753c0,7.185-1.75,13.77-5.239,19.755c-3.492,5.985-8.231,10.775-14.217,14.366
				C2400.747-5805.07,2394.162-5803.273,2386.979-5803.273z"/>
			<path fill="#3F3F3F" d="M2604.524-5472.647c0-7.185,1.797-13.77,5.389-19.755c3.591-5.985,8.38-10.775,14.366-14.368
				c5.985-3.59,12.571-5.385,19.755-5.385c7.183,0,13.766,1.795,19.753,5.385c5.987,3.593,10.724,8.382,14.217,14.368
				c3.489,5.985,5.239,12.57,5.239,19.755c0,7.183-1.75,13.768-5.239,19.753c-3.492,5.985-8.229,10.725-14.217,14.217
				c-5.987,3.489-12.571,5.239-19.753,5.239c-7.185,0-13.77-1.75-19.755-5.239c-5.985-3.492-10.775-8.231-14.366-14.217
				C2606.321-5458.879,2604.524-5465.464,2604.524-5472.647z"/>
		</g>
		<rect x="927.978" y="-5778.56" fill="#00D6D3" width="58.2" height="213.282"/>
		<path fill="#3F3F3F" d="M1081.453-5565.278v-276.181h58.2v39.6c9.398-13.997,22.898-25.697,40.5-35.1
			c17.597-9.398,38.498-14.1,62.7-14.1c23.798,0,44.4,4.95,61.8,14.85c17.4,9.9,30.848,24.15,40.35,42.75
			c9.497,18.6,14.25,40.8,14.25,66.6v161.581h-58.2v-149.88c0-28.8-6.9-50.897-20.7-66.3c-13.8-15.398-33.202-23.1-58.2-23.1
			c-17.203,0-31.95,3.45-44.25,10.35c-12.3,6.9-21.75,16.102-28.35,27.6c-6.6,11.503-9.9,24.052-9.9,37.65v163.681H1081.453z"/>
		<path fill="#3F3F3F" d="M1820.927-5555.678c-32.602,0-61.95-6.9-88.05-20.7c-26.1-13.8-46.8-33-62.1-57.6
			c-15.3-24.6-22.95-52.898-22.95-84.9c0-32.198,7.65-60.548,22.95-85.05c15.3-24.497,36-43.65,62.1-57.45
			c26.1-13.8,55.448-20.7,88.05-20.7c32.597,0,61.95,6.9,88.05,20.7c26.1,13.8,46.8,32.953,62.1,57.45
			c15.3,24.501,22.95,52.852,22.95,85.05c0,32.001-7.649,60.3-22.95,84.9c-15.3,24.6-36,43.8-62.1,57.6
			C1882.877-5562.578,1853.523-5555.678,1820.927-5555.678z M1821.227-5606.378c21.398,0,40.599-4.8,57.6-14.4
			c16.997-9.6,30.398-22.898,40.2-39.9c9.797-16.997,14.7-36.398,14.7-58.2c0-21.999-4.903-41.447-14.7-58.35
			c-9.802-16.898-23.203-30.15-40.2-39.75c-17.001-9.6-36.202-14.4-57.6-14.4c-21.6,0-40.903,4.8-57.9,14.4
			c-17.001,9.6-30.403,22.852-40.2,39.75c-9.802,16.903-14.7,36.352-14.7,58.35c0,21.802,4.898,41.203,14.7,58.2
			c9.797,17.001,23.198,30.3,40.2,39.9C1780.324-5611.178,1799.627-5606.378,1821.227-5606.378z"/>
		<path fill="#3F3F3F" d="M1581.779-5913.921c-11.1-3.497-22.852-5.25-35.25-5.25c-20.001,0-36.952,4.65-50.85,13.95
			c-13.903,9.3-24.501,22.753-31.8,40.35c-7.303,17.602-10.95,38.803-10.95,63.6v21.851h-33.9v44.1h33.9v170.042h58.2v-170.042h76.5
			v-44.1h-76.5v-22.151c0-13.599,1.5-25.35,4.5-35.25s7.8-17.55,14.4-22.95s15.398-8.1,26.4-8.1c13.397,0,24.699,3.403,33.9,10.2
			l20.4-41.4C1602.526-5905.469,1592.879-5910.419,1581.779-5913.921z"/>
	</g>
	<g>
		<path fill="#3F3F3F" d="M956.928-4778.671c7.185,0,13.77,1.797,19.755,5.39c5.985,3.59,10.775,8.38,14.367,14.366
			c3.591,5.985,5.386,12.57,5.386,19.755c0,7.183-1.795,13.766-5.386,19.753c-3.592,5.987-8.382,10.725-14.367,14.217
			c-5.985,3.489-12.57,5.239-19.755,5.239c-7.183,0-13.768-1.75-19.753-5.239c-5.985-3.492-10.724-8.229-14.217-14.217
			c-3.489-5.987-5.239-12.57-5.239-19.753c0-7.185,1.75-13.77,5.239-19.755c3.492-5.985,8.231-10.775,14.217-14.366
			C943.16-4776.874,949.745-4778.671,956.928-4778.671z"/>
		<circle fill="#3F3F3F" cx="2527.182" cy="-4615.662" r="375.284"/>
		<rect x="2615.291" y="-4740.201" fill="#FFFFFF" width="57.183" height="306.653"/>
		<path fill="#00D6D3" d="M2555.771-4907.467v445.03h-56.58v-26.88c-0.2,0.15-0.4,0.31-0.6,0.46c-7.38,5.71-15.35,10.82-23.9,15.34
			c-26.05,13.77-55.33,20.66-87.85,20.66c-32.53,0-61.81-6.89-87.86-20.66c-26.03-13.77-46.69-32.92-61.94-57.47
			c-15.28-24.54-22.91-52.77-22.91-84.69c0-32.13,7.63-60.4,22.91-84.85c15.25-24.45,35.91-43.56,61.94-57.33
			c7.67-4.05,15.62-7.49,23.84-10.35v58.48h0.25c-14.01,9.17-25.27,21.12-33.8,35.83c-9.79,16.86-14.68,36.26-14.68,58.22
			c0,21.74,4.89,41.11,14.68,58.06c9.77,16.96,23.13,30.22,40.11,39.8c16.95,9.58,36.2,14.37,57.75,14.37
			c21.36,0,40.52-4.79,57.47-14.37s30.34-22.84,40.11-39.8c7.52-13.05,12.16-27.51,13.88-43.39c0.27-2.47,0.47-4.98,0.6-7.53v-14.36
			c-0.13-2.57-0.33-5.1-0.6-7.59c-1.74-15.98-6.36-30.45-13.88-43.41c-8.54-14.73-19.84-26.69-33.86-35.86v-58.45
			c8.22,2.86,16.17,6.3,23.84,10.35c8.55,4.53,16.52,9.63,23.9,15.33c0.2,0.15,0.4,0.31,0.6,0.46v-165.4H2555.771z"/>
		<path fill="#FFFFFF" d="M2386.979-4699.952c-7.185,0-13.77-1.797-19.755-5.39c-5.985-3.59-10.775-8.38-14.368-14.366
			c-3.59-5.985-5.385-12.57-5.385-19.755c0-7.183,1.795-13.766,5.385-19.753c3.593-5.987,8.382-10.724,14.368-14.217
			c5.985-3.489,12.57-5.239,19.755-5.239c7.183,0,13.768,1.75,19.753,5.239c5.985,3.493,10.724,8.229,14.217,14.217
			c3.489,5.987,5.239,12.57,5.239,19.753c0,7.185-1.75,13.77-5.239,19.755c-3.492,5.985-8.231,10.775-14.217,14.366
			C2400.747-4701.75,2394.162-4699.952,2386.979-4699.952z"/>
		<path fill="#FFFFFF" d="M2604.524-4369.326c0-7.185,1.797-13.77,5.389-19.755c3.591-5.985,8.38-10.775,14.366-14.368
			c5.985-3.59,12.57-5.386,19.755-5.386c7.183,0,13.766,1.795,19.753,5.386c5.987,3.592,10.724,8.382,14.217,14.368
			c3.489,5.985,5.239,12.57,5.239,19.755c0,7.183-1.75,13.768-5.239,19.753c-3.492,5.985-8.229,10.724-14.217,14.217
			c-5.987,3.488-12.57,5.238-19.753,5.238c-7.185,0-13.77-1.75-19.755-5.238c-5.985-3.493-10.775-8.231-14.366-14.217
			C2606.321-4355.558,2604.524-4362.143,2604.524-4369.326z"/>
		<rect x="927.978" y="-4675.239" fill="#00D6D3" width="58.2" height="213.282"/>
		<path fill="#3F3F3F" d="M1081.452-4461.958v-276.181h58.2v39.6c9.398-13.997,22.898-25.697,40.5-35.1
			c17.597-9.398,38.498-14.1,62.7-14.1c23.798,0,44.4,4.95,61.8,14.85c17.4,9.9,30.848,24.15,40.35,42.75
			c9.497,18.6,14.25,40.8,14.25,66.6v161.581h-58.2v-149.88c0-28.8-6.9-50.897-20.7-66.3c-13.8-15.398-33.202-23.1-58.2-23.1
			c-17.203,0-31.95,3.45-44.25,10.35c-12.3,6.9-21.75,16.102-28.35,27.6c-6.6,11.503-9.9,24.052-9.9,37.65v163.681H1081.452z"/>
		<path fill="#3F3F3F" d="M1820.927-4452.357c-32.602,0-61.95-6.9-88.05-20.7c-26.1-13.8-46.8-33-62.1-57.6
			c-15.3-24.6-22.95-52.898-22.95-84.9c0-32.198,7.65-60.548,22.95-85.05c15.3-24.497,36-43.65,62.1-57.45
			c26.1-13.8,55.448-20.7,88.05-20.7c32.597,0,61.95,6.9,88.05,20.7c26.1,13.8,46.8,32.953,62.1,57.45
			c15.3,24.501,22.95,52.852,22.95,85.05c0,32.001-7.649,60.3-22.95,84.9c-15.3,24.6-36,43.8-62.1,57.6
			C1882.877-4459.257,1853.523-4452.357,1820.927-4452.357z M1821.226-4503.058c21.398,0,40.599-4.8,57.6-14.4
			c16.997-9.6,30.398-22.898,40.2-39.9c9.797-16.997,14.7-36.398,14.7-58.2c0-21.999-4.903-41.447-14.7-58.35
			c-9.802-16.898-23.203-30.15-40.2-39.75c-17.001-9.6-36.202-14.4-57.6-14.4c-21.6,0-40.903,4.8-57.9,14.4
			c-17.001,9.6-30.403,22.852-40.2,39.75c-9.802,16.903-14.7,36.352-14.7,58.35c0,21.802,4.898,41.203,14.7,58.2
			c9.797,17.001,23.198,30.3,40.2,39.9C1780.324-4507.857,1799.627-4503.058,1821.226-4503.058z"/>
		<path fill="#3F3F3F" d="M1581.778-4810.6c-11.1-3.497-22.852-5.25-35.25-5.25c-20.001,0-36.952,4.65-50.85,13.95
			c-13.903,9.3-24.501,22.753-31.8,40.35c-7.303,17.602-10.95,38.803-10.95,63.6v21.851h-33.9v44.1h33.9v170.042h58.2v-170.042h76.5
			v-44.1h-76.5v-22.15c0-13.599,1.5-25.35,4.5-35.25s7.8-17.55,14.4-22.95s15.398-8.1,26.4-8.1c13.397,0,24.699,3.403,33.9,10.2
			l20.4-41.4C1602.526-4802.148,1592.879-4807.098,1581.778-4810.6z"/>
	</g>
	<g>
		<path fill="#3F3F3F" d="M3221.695-7185.577c7.185,0,13.77,1.797,19.755,5.39c5.985,3.59,10.775,8.38,14.368,14.366
			c3.59,5.985,5.386,12.57,5.386,19.755c0,7.183-1.795,13.766-5.386,19.753c-3.592,5.987-8.382,10.724-14.368,14.217
			c-5.985,3.489-12.57,5.239-19.755,5.239c-7.183,0-13.768-1.75-19.753-5.239c-5.985-3.493-10.724-8.229-14.217-14.217
			c-3.489-5.987-5.239-12.57-5.239-19.753c0-7.185,1.75-13.77,5.239-19.755c3.492-5.985,8.231-10.775,14.217-14.366
			C3207.927-7183.779,3214.512-7185.577,3221.695-7185.577z"/>
		<circle fill="#00D6D3" cx="4791.949" cy="-7022.567" r="375.284"/>
		<rect x="4880.058" y="-7147.106" fill="#3F3F3F" width="57.183" height="306.653"/>
		<path fill="#FFFFFF" d="M4820.538-7314.372v445.03h-56.58v-26.88c-0.2,0.15-0.4,0.31-0.6,0.46c-7.38,5.71-15.35,10.82-23.9,15.34
			c-26.05,13.77-55.33,20.66-87.85,20.66c-32.53,0-61.81-6.89-87.86-20.66c-26.03-13.77-46.69-32.92-61.94-57.47
			c-15.28-24.54-22.91-52.77-22.91-84.69c0-32.13,7.63-60.4,22.91-84.85c15.25-24.45,35.91-43.56,61.94-57.33
			c7.67-4.05,15.62-7.49,23.84-10.35v58.48h0.25c-14.01,9.17-25.27,21.12-33.8,35.83c-9.79,16.86-14.68,36.26-14.68,58.22
			c0,21.74,4.89,41.11,14.68,58.06c9.77,16.96,23.13,30.22,40.11,39.8c16.95,9.58,36.2,14.37,57.75,14.37
			c21.36,0,40.52-4.79,57.47-14.37s30.34-22.84,40.11-39.8c7.52-13.05,12.16-27.51,13.88-43.39c0.27-2.47,0.47-4.98,0.6-7.53v-14.36
			c-0.13-2.57-0.33-5.1-0.6-7.59c-1.74-15.98-6.36-30.45-13.88-43.41c-8.54-14.73-19.84-26.69-33.86-35.86v-58.45
			c8.22,2.86,16.17,6.3,23.84,10.35c8.55,4.53,16.52,9.63,23.9,15.33c0.2,0.15,0.4,0.31,0.6,0.46v-165.4H4820.538z"/>
		<path fill="#3F3F3F" d="M4651.746-7106.857c-7.185,0-13.77-1.797-19.755-5.39c-5.985-3.59-10.775-8.38-14.368-14.366
			c-3.59-5.985-5.386-12.57-5.386-19.755c0-7.183,1.795-13.766,5.386-19.753c3.592-5.987,8.382-10.724,14.368-14.217
			c5.985-3.489,12.57-5.239,19.755-5.239c7.183,0,13.768,1.75,19.753,5.239c5.985,3.493,10.725,8.229,14.217,14.217
			c3.489,5.987,5.239,12.57,5.239,19.753c0,7.185-1.75,13.77-5.239,19.755c-3.492,5.985-8.231,10.775-14.217,14.366
			C4665.514-7108.655,4658.929-7106.857,4651.746-7106.857z"/>
		<path fill="#3F3F3F" d="M4869.291-6776.231c0-7.185,1.797-13.77,5.39-19.755c3.59-5.985,8.38-10.775,14.365-14.368
			c5.986-3.59,12.571-5.386,19.755-5.386c7.183,0,13.766,1.795,19.753,5.386c5.987,3.592,10.724,8.382,14.216,14.368
			c3.489,5.985,5.239,12.57,5.239,19.755c0,7.183-1.75,13.768-5.239,19.753c-3.492,5.985-8.229,10.724-14.216,14.217
			c-5.987,3.488-12.571,5.238-19.753,5.238c-7.185,0-13.77-1.75-19.755-5.238c-5.985-3.493-10.775-8.231-14.365-14.217
			C4871.087-6762.463,4869.291-6769.048,4869.291-6776.231z"/>
		<rect x="3192.745" y="-7082.145" fill="#00D6D3" width="58.2" height="213.282"/>
		<path fill="#3F3F3F" d="M3346.219-6868.863v-276.181h58.2v39.6c9.398-13.997,22.898-25.697,40.5-35.1
			c17.597-9.398,38.498-14.1,62.7-14.1c23.798,0,44.4,4.95,61.8,14.85c17.4,9.9,30.848,24.15,40.35,42.75
			c9.497,18.6,14.25,40.8,14.25,66.6v161.581h-58.2v-149.88c0-28.8-6.9-50.897-20.7-66.3c-13.8-15.398-33.202-23.1-58.2-23.1
			c-17.203,0-31.95,3.45-44.25,10.35c-12.3,6.9-21.75,16.102-28.35,27.6c-6.6,11.503-9.9,24.052-9.9,37.65v163.681H3346.219z"/>
		<path fill="#3F3F3F" d="M4085.694-6859.263c-32.602,0-61.95-6.9-88.05-20.7c-26.1-13.8-46.8-33-62.1-57.6
			c-15.3-24.6-22.95-52.898-22.95-84.9c0-32.198,7.65-60.548,22.95-85.05c15.3-24.497,36-43.65,62.1-57.45
			c26.1-13.8,55.448-20.7,88.05-20.7c32.596,0,61.95,6.9,88.05,20.7c26.1,13.8,46.8,32.953,62.1,57.45
			c15.3,24.501,22.95,52.852,22.95,85.05c0,32.001-7.649,60.3-22.95,84.9c-15.3,24.6-36,43.8-62.1,57.6
			C4147.644-6866.163,4118.29-6859.263,4085.694-6859.263z M4085.993-6909.963c21.398,0,40.598-4.8,57.6-14.4
			c16.997-9.6,30.398-22.898,40.2-39.9c9.797-16.997,14.7-36.398,14.7-58.2c0-21.999-4.903-41.447-14.7-58.35
			c-9.802-16.898-23.203-30.15-40.2-39.75c-17.001-9.6-36.202-14.4-57.6-14.4c-21.6,0-40.903,4.8-57.9,14.4
			c-17.001,9.6-30.403,22.852-40.2,39.75c-9.802,16.903-14.7,36.352-14.7,58.35c0,21.802,4.898,41.203,14.7,58.2
			c9.797,17.001,23.198,30.3,40.2,39.9C4045.091-6914.763,4064.394-6909.963,4085.993-6909.963z"/>
		<path fill="#3F3F3F" d="M3846.545-7217.505c-11.1-3.497-22.852-5.25-35.25-5.25c-20.001,0-36.952,4.65-50.85,13.95
			c-13.903,9.3-24.501,22.753-31.8,40.35c-7.303,17.602-10.95,38.803-10.95,63.6v21.851h-33.9v44.1h33.9v170.042h58.2v-170.042h76.5
			v-44.1h-76.5v-22.15c0-13.599,1.5-25.35,4.5-35.25s7.8-17.55,14.4-22.95s15.398-8.1,26.4-8.1c13.397,0,24.699,3.403,33.9,10.2
			l20.4-41.4C3867.292-7209.053,3857.646-7214.003,3846.545-7217.505z"/>
	</g>
	<g>
		<path fill="#FFFFFF" d="M956.928-2588.651c7.185,0,13.77,1.797,19.755,5.389c5.985,3.591,10.775,8.38,14.368,14.366
			c3.59,5.985,5.386,12.571,5.386,19.755c0,7.183-1.795,13.766-5.386,19.753c-3.592,5.987-8.382,10.724-14.368,14.217
			c-5.985,3.489-12.57,5.239-19.755,5.239c-7.183,0-13.768-1.75-19.753-5.239c-5.985-3.492-10.724-8.229-14.217-14.217
			c-3.489-5.987-5.239-12.571-5.239-19.753c0-7.185,1.75-13.77,5.239-19.755c3.492-5.985,8.231-10.775,14.217-14.366
			C943.161-2586.854,949.746-2588.651,956.928-2588.651z"/>
		<path fill="#00D6D3" d="M2527.182-2800.926c-207.264,0-375.284,168.02-375.284,375.284s168.02,375.284,375.284,375.284
			s375.284-168.02,375.284-375.284S2734.446-2800.926,2527.182-2800.926z M2420.949-2529.687
			c-3.492,5.985-8.231,10.775-14.217,14.366c-5.985,3.592-12.57,5.389-19.753,5.389c-7.185,0-13.77-1.797-19.755-5.389
			c-5.985-3.59-10.775-8.38-14.368-14.366c-3.59-5.985-5.386-12.57-5.386-19.755c0-7.183,1.795-13.766,5.386-19.753
			c3.593-5.987,8.382-10.724,14.368-14.217c5.985-3.489,12.57-5.239,19.755-5.239c7.183,0,13.768,1.75,19.753,5.239
			c5.985,3.492,10.724,8.229,14.217,14.217c3.489,5.987,5.239,12.57,5.239,19.753
			C2426.188-2542.258,2424.438-2535.673,2420.949-2529.687z M2615.291-2550.18h57.183v306.653h-57.183V-2550.18z M2678.004-2159.552
			c-3.492,5.985-8.229,10.724-14.217,14.217c-5.987,3.489-12.57,5.239-19.753,5.239c-7.185,0-13.77-1.75-19.755-5.239
			c-5.986-3.492-10.775-8.231-14.366-14.217c-3.593-5.985-5.39-12.571-5.39-19.753c0-7.185,1.797-13.77,5.39-19.755
			c3.59-5.985,8.38-10.775,14.366-14.367c5.985-3.591,12.57-5.386,19.755-5.386c7.183,0,13.766,1.795,19.753,5.386
			c5.987,3.592,10.724,8.382,14.217,14.367c3.489,5.986,5.239,12.571,5.239,19.755
			C2683.243-2172.123,2681.493-2165.538,2678.004-2159.552z"/>
		<path fill="#FFFFFF" d="M2555.771-2717.447v445.03h-56.58v-26.88c-0.2,0.15-0.4,0.31-0.6,0.46c-7.38,5.71-15.35,10.82-23.9,15.34
			c-26.05,13.77-55.33,20.66-87.85,20.66c-32.53,0-61.81-6.89-87.86-20.66c-26.03-13.77-46.69-32.92-61.94-57.47
			c-15.28-24.54-22.91-52.77-22.91-84.69c0-32.13,7.63-60.4,22.91-84.85c15.25-24.45,35.91-43.56,61.94-57.33
			c7.67-4.05,15.62-7.49,23.84-10.35v58.48h0.25c-14.01,9.17-25.27,21.12-33.8,35.83c-9.79,16.86-14.68,36.26-14.68,58.22
			c0,21.74,4.89,41.11,14.68,58.06c9.77,16.96,23.13,30.22,40.11,39.8c16.95,9.58,36.2,14.37,57.75,14.37
			c21.36,0,40.52-4.79,57.47-14.37c16.95-9.58,30.34-22.84,40.11-39.8c7.52-13.05,12.16-27.51,13.88-43.39
			c0.27-2.47,0.47-4.98,0.6-7.53v-14.36c-0.13-2.57-0.33-5.1-0.6-7.59c-1.74-15.98-6.36-30.45-13.88-43.41
			c-8.54-14.73-19.84-26.69-33.86-35.86v-58.45c8.22,2.86,16.17,6.3,23.84,10.35c8.55,4.53,16.52,9.63,23.9,15.33
			c0.2,0.15,0.4,0.31,0.6,0.46v-165.4H2555.771z"/>
		<rect x="927.978" y="-2485.219" fill="#00D6D3" width="58.2" height="213.282"/>
		<path fill="#FFFFFF" d="M1081.453-2271.937v-276.181h58.2v39.6c9.398-13.997,22.898-25.697,40.5-35.1
			c17.597-9.398,38.498-14.1,62.7-14.1c23.798,0,44.4,4.95,61.8,14.85c17.4,9.9,30.848,24.15,40.35,42.75
			c9.497,18.6,14.25,40.8,14.25,66.6v161.581h-58.2v-149.88c0-28.8-6.9-50.897-20.7-66.3c-13.8-15.398-33.202-23.1-58.2-23.1
			c-17.203,0-31.95,3.45-44.25,10.35c-12.3,6.9-21.75,16.102-28.35,27.6c-6.6,11.503-9.9,24.052-9.9,37.65v163.681H1081.453z"/>
		<path fill="#FFFFFF" d="M1820.927-2262.337c-32.602,0-61.95-6.9-88.05-20.7c-26.1-13.8-46.8-33-62.1-57.6
			c-15.3-24.6-22.95-52.898-22.95-84.9c0-32.198,7.65-60.548,22.95-85.05c15.3-24.497,36-43.65,62.1-57.45
			c26.1-13.8,55.448-20.7,88.05-20.7c32.597,0,61.95,6.9,88.05,20.7c26.1,13.8,46.8,32.953,62.1,57.45
			c15.3,24.501,22.95,52.852,22.95,85.05c0,32.001-7.649,60.3-22.95,84.9c-15.3,24.6-36,43.8-62.1,57.6
			C1882.877-2269.237,1853.523-2262.337,1820.927-2262.337z M1821.227-2313.037c21.398,0,40.599-4.8,57.6-14.4
			c16.997-9.6,30.398-22.898,40.2-39.9c9.797-16.997,14.7-36.398,14.7-58.2c0-21.999-4.903-41.447-14.7-58.35
			c-9.802-16.898-23.203-30.15-40.2-39.75c-17.001-9.6-36.202-14.4-57.6-14.4c-21.6,0-40.903,4.8-57.9,14.4
			c-17.001,9.6-30.403,22.852-40.2,39.75c-9.802,16.903-14.7,36.352-14.7,58.35c0,21.802,4.898,41.203,14.7,58.2
			c9.797,17.001,23.198,30.3,40.2,39.9C1780.324-2317.837,1799.627-2313.037,1821.227-2313.037z"/>
		<path fill="#FFFFFF" d="M1581.779-2620.579c-11.1-3.497-22.852-5.25-35.25-5.25c-20.001,0-36.952,4.65-50.85,13.95
			c-13.903,9.3-24.501,22.753-31.8,40.35c-7.303,17.602-10.95,38.803-10.95,63.6v21.851h-33.9v44.1h33.9v170.042h58.2v-170.042h76.5
			v-44.1h-76.5v-22.15c0-13.599,1.5-25.35,4.5-35.25s7.8-17.55,14.4-22.95s15.398-8.1,26.4-8.1c13.397,0,24.699,3.403,33.9,10.2
			l20.4-41.4C1602.526-2612.128,1592.879-2617.078,1581.779-2620.579z"/>
	</g>
	<g>
		<path fill="#FFFFFF" d="M956.928-1476.651c7.185,0,13.77,1.797,19.755,5.39c5.985,3.59,10.775,8.38,14.368,14.366
			c3.59,5.985,5.386,12.57,5.386,19.755c0,7.183-1.795,13.766-5.386,19.753c-3.592,5.987-8.382,10.724-14.368,14.217
			c-5.985,3.489-12.57,5.239-19.755,5.239c-7.183,0-13.768-1.75-19.753-5.239c-5.985-3.492-10.724-8.229-14.217-14.217
			c-3.489-5.987-5.239-12.57-5.239-19.753c0-7.185,1.75-13.77,5.239-19.755c3.492-5.985,8.231-10.775,14.217-14.366
			C943.161-1474.854,949.746-1476.651,956.928-1476.651z"/>
		<circle fill="#FFFFFF" cx="2527.182" cy="-1313.642" r="375.284"/>
		<rect x="2615.291" y="-1438.18" fill="#3F3F3F" width="57.183" height="306.653"/>
		<path fill="#00D6D3" d="M2555.771-1605.447v445.03h-56.58v-26.88c-0.2,0.15-0.4,0.31-0.6,0.46c-7.38,5.71-15.35,10.82-23.9,15.34
			c-26.05,13.77-55.33,20.66-87.85,20.66c-32.53,0-61.81-6.89-87.86-20.66c-26.03-13.77-46.69-32.92-61.94-57.47
			c-15.28-24.54-22.91-52.77-22.91-84.69c0-32.13,7.63-60.4,22.91-84.85c15.25-24.45,35.91-43.56,61.94-57.33
			c7.67-4.05,15.62-7.49,23.84-10.35v58.48h0.25c-14.01,9.17-25.27,21.12-33.8,35.83c-9.79,16.86-14.68,36.26-14.68,58.22
			c0,21.74,4.89,41.11,14.68,58.06c9.77,16.96,23.13,30.22,40.11,39.8c16.95,9.58,36.2,14.37,57.75,14.37
			c21.36,0,40.52-4.79,57.47-14.37c16.95-9.58,30.34-22.84,40.11-39.8c7.52-13.05,12.16-27.51,13.88-43.39
			c0.27-2.47,0.47-4.98,0.6-7.53v-14.36c-0.13-2.57-0.33-5.1-0.6-7.59c-1.74-15.98-6.36-30.45-13.88-43.41
			c-8.54-14.73-19.84-26.69-33.86-35.86v-58.45c8.22,2.86,16.17,6.3,23.84,10.35c8.55,4.53,16.52,9.63,23.9,15.33
			c0.2,0.15,0.4,0.31,0.6,0.46v-165.4H2555.771z"/>
		<path fill="#3F3F3F" d="M2386.979-1397.932c-7.185,0-13.77-1.797-19.755-5.39c-5.986-3.59-10.775-8.38-14.368-14.366
			c-3.59-5.985-5.386-12.57-5.386-19.755c0-7.183,1.795-13.766,5.386-19.753c3.592-5.987,8.382-10.724,14.368-14.217
			c5.985-3.489,12.57-5.239,19.755-5.239c7.183,0,13.768,1.75,19.753,5.239c5.985,3.492,10.724,8.229,14.217,14.217
			c3.489,5.987,5.239,12.57,5.239,19.753c0,7.185-1.75,13.77-5.239,19.755c-3.492,5.985-8.231,10.775-14.217,14.366
			C2400.747-1399.729,2394.162-1397.932,2386.979-1397.932z"/>
		<path fill="#3F3F3F" d="M2604.524-1067.306c0-7.185,1.797-13.77,5.39-19.755c3.59-5.985,8.38-10.775,14.365-14.368
			c5.985-3.59,12.571-5.386,19.755-5.386c7.183,0,13.766,1.795,19.753,5.386c5.987,3.592,10.724,8.382,14.217,14.368
			c3.489,5.985,5.239,12.57,5.239,19.755c0,7.183-1.75,13.768-5.239,19.753c-3.492,5.985-8.229,10.724-14.217,14.217
			c-5.987,3.489-12.571,5.239-19.753,5.239c-7.185,0-13.77-1.75-19.755-5.239c-5.985-3.492-10.775-8.231-14.365-14.217
			C2606.321-1053.538,2604.524-1060.123,2604.524-1067.306z"/>
		<rect x="927.978" y="-1373.219" fill="#00D6D3" width="58.2" height="213.282"/>
		<path fill="#FFFFFF" d="M1081.453-1159.937v-276.181h58.2v39.6c9.398-13.997,22.898-25.697,40.5-35.1
			c17.597-9.398,38.498-14.1,62.7-14.1c23.798,0,44.4,4.95,61.8,14.85c17.4,9.9,30.848,24.15,40.35,42.75
			c9.497,18.6,14.25,40.8,14.25,66.6v161.581h-58.2v-149.88c0-28.8-6.9-50.897-20.7-66.3c-13.8-15.398-33.202-23.1-58.2-23.1
			c-17.203,0-31.95,3.45-44.25,10.35c-12.3,6.9-21.75,16.102-28.35,27.6c-6.6,11.503-9.9,24.052-9.9,37.65v163.681H1081.453z"/>
		<path fill="#FFFFFF" d="M1820.927-1150.337c-32.602,0-61.95-6.9-88.05-20.7c-26.1-13.8-46.8-33-62.1-57.6
			c-15.3-24.6-22.95-52.898-22.95-84.9c0-32.198,7.65-60.548,22.95-85.05c15.3-24.497,36-43.65,62.1-57.45
			c26.1-13.8,55.448-20.7,88.05-20.7c32.597,0,61.95,6.9,88.05,20.7c26.1,13.8,46.8,32.953,62.1,57.45
			c15.3,24.501,22.95,52.852,22.95,85.05c0,32.001-7.649,60.3-22.95,84.9c-15.3,24.6-36,43.8-62.1,57.6
			C1882.877-1157.237,1853.523-1150.337,1820.927-1150.337z M1821.227-1201.037c21.398,0,40.599-4.8,57.6-14.4
			c16.997-9.6,30.398-22.898,40.2-39.9c9.797-16.997,14.7-36.398,14.7-58.2c0-21.999-4.903-41.447-14.7-58.35
			c-9.802-16.898-23.203-30.15-40.2-39.75c-17.001-9.6-36.202-14.4-57.6-14.4c-21.6,0-40.903,4.8-57.9,14.4
			c-17.001,9.6-30.403,22.852-40.2,39.75c-9.802,16.903-14.7,36.352-14.7,58.35c0,21.802,4.898,41.203,14.7,58.2
			c9.797,17.001,23.198,30.3,40.2,39.9C1780.324-1205.837,1799.627-1201.037,1821.227-1201.037z"/>
		<path fill="#FFFFFF" d="M1581.779-1508.579c-11.1-3.497-22.852-5.25-35.25-5.25c-20.001,0-36.952,4.65-50.85,13.95
			c-13.903,9.3-24.501,22.753-31.8,40.35c-7.303,17.602-10.95,38.803-10.95,63.6v21.851h-33.9v44.1h33.9v170.042h58.2v-170.042h76.5
			v-44.1h-76.5v-22.151c0-13.599,1.5-25.35,4.5-35.25s7.8-17.55,14.4-22.95s15.398-8.1,26.4-8.1c13.397,0,24.699,3.403,33.9,10.2
			l20.4-41.4C1602.526-1500.128,1592.879-1505.078,1581.779-1508.579z"/>
	</g>
	<g>
		<path fill="#FFFFFF" d="M956.928-338.671c7.185,0,13.77,1.797,19.755,5.389c5.985,3.59,10.775,8.38,14.368,14.366
			c3.59,5.985,5.386,12.57,5.386,19.755c0,7.183-1.795,13.766-5.386,19.753c-3.592,5.987-8.382,10.724-14.368,14.217
			c-5.985,3.489-12.57,5.239-19.755,5.239c-7.183,0-13.768-1.75-19.753-5.239c-5.985-3.492-10.724-8.229-14.217-14.217
			c-3.489-5.987-5.239-12.57-5.239-19.753c0-7.185,1.75-13.77,5.239-19.755c3.492-5.985,8.231-10.775,14.217-14.366
			C943.161-336.874,949.746-338.671,956.928-338.671z"/>
		<path fill="#FFFFFF" d="M2527.182-550.946c-207.264,0-375.284,168.021-375.284,375.284c0,207.263,168.02,375.284,375.284,375.284
			s375.284-168.02,375.284-375.284C2902.466-382.925,2734.446-550.946,2527.182-550.946z M2615.291-300.201h57.183V6.452h-57.183
			V-300.201z M2352.856-319.216c3.593-5.987,8.382-10.724,14.368-14.217c5.985-3.489,12.57-5.239,19.755-5.239
			c7.183,0,13.768,1.75,19.753,5.239c5.985,3.492,10.724,8.229,14.217,14.217c3.489,5.987,5.239,12.571,5.239,19.753
			c0,7.185-1.75,13.77-5.239,19.755c-3.492,5.985-8.231,10.775-14.217,14.366c-5.985,3.592-12.57,5.389-19.753,5.389
			c-7.185,0-13.77-1.797-19.755-5.389c-5.985-3.591-10.775-8.38-14.368-14.366c-3.59-5.985-5.386-12.571-5.386-19.755
			C2347.471-306.645,2349.266-313.229,2352.856-319.216z M2555.771-22.437h-56.58v-26.88c-0.2,0.15-0.4,0.31-0.6,0.46
			c-7.38,5.71-15.35,10.82-23.9,15.34c-26.05,13.77-55.33,20.66-87.85,20.66c-32.53,0-61.81-6.89-87.86-20.66
			c-26.03-13.77-46.69-32.92-61.94-57.47c-15.28-24.54-22.91-52.77-22.91-84.69c0-32.13,7.63-60.4,22.91-84.85
			c15.25-24.45,35.91-43.56,61.94-57.33c7.67-4.05,15.62-7.49,23.84-10.35v58.48h0.25c-14.01,9.17-25.27,21.12-33.8,35.83
			c-9.79,16.86-14.68,36.26-14.68,58.22c0,21.74,4.89,41.11,14.68,58.06c9.77,16.96,23.13,30.22,40.11,39.8
			c16.95,9.58,36.2,14.37,57.75,14.37c21.36,0,40.52-4.79,57.47-14.37c16.95-9.58,30.34-22.84,40.11-39.8
			c7.52-13.05,12.16-27.51,13.88-43.39c0.27-2.47,0.47-4.98,0.6-7.53v-14.36c-0.13-2.57-0.33-5.1-0.6-7.59
			c-1.74-15.98-6.36-30.45-13.88-43.41c-8.54-14.73-19.84-26.69-33.86-35.86v-58.45c8.22,2.86,16.17,6.3,23.84,10.35
			c8.55,4.53,16.52,9.63,23.9,15.33c0.2,0.15,0.4,0.31,0.6,0.46v-165.4h56.58V-22.437z M2678.004,90.427
			c-3.492,5.986-8.229,10.724-14.217,14.217c-5.987,3.489-12.57,5.239-19.753,5.239c-7.185,0-13.77-1.75-19.755-5.239
			c-5.986-3.492-10.775-8.231-14.366-14.217c-3.593-5.985-5.39-12.57-5.39-19.753c0-7.185,1.797-13.77,5.39-19.755
			c3.59-5.985,8.38-10.775,14.366-14.367c5.985-3.591,12.57-5.386,19.755-5.386c7.183,0,13.766,1.795,19.753,5.386
			c5.987,3.592,10.724,8.382,14.217,14.367c3.489,5.985,5.239,12.57,5.239,19.755C2683.243,77.857,2681.493,84.442,2678.004,90.427z
			"/>
		<rect x="927.978" y="-235.239" fill="#FFFFFF" width="58.2" height="213.282"/>
		<path fill="#FFFFFF" d="M1081.453-21.957v-276.181h58.2v39.6c9.398-13.997,22.898-25.697,40.5-35.1
			c17.597-9.398,38.498-14.1,62.7-14.1c23.798,0,44.4,4.95,61.8,14.85c17.4,9.9,30.848,24.15,40.35,42.75
			c9.497,18.6,14.25,40.8,14.25,66.6v161.581h-58.2v-149.88c0-28.8-6.9-50.897-20.7-66.3c-13.8-15.398-33.202-23.1-58.2-23.1
			c-17.203,0-31.95,3.45-44.25,10.35c-12.3,6.9-21.75,16.102-28.35,27.6c-6.6,11.503-9.9,24.052-9.9,37.65v163.681H1081.453z"/>
		<path fill="#FFFFFF" d="M1820.927-12.357c-32.602,0-61.95-6.9-88.05-20.7c-26.1-13.8-46.8-33-62.1-57.6
			c-15.3-24.6-22.95-52.898-22.95-84.9c0-32.198,7.65-60.548,22.95-85.05c15.3-24.497,36-43.65,62.1-57.45
			c26.1-13.8,55.448-20.7,88.05-20.7c32.597,0,61.95,6.9,88.05,20.7c26.1,13.8,46.8,32.953,62.1,57.45
			c15.3,24.501,22.95,52.852,22.95,85.05c0,32.001-7.649,60.3-22.95,84.9c-15.3,24.6-36,43.8-62.1,57.6
			C1882.877-19.257,1853.523-12.357,1820.927-12.357z M1821.227-63.057c21.398,0,40.599-4.8,57.6-14.4
			c16.997-9.6,30.398-22.898,40.2-39.9c9.797-16.997,14.7-36.398,14.7-58.2c0-21.999-4.903-41.447-14.7-58.35
			c-9.802-16.898-23.203-30.15-40.2-39.75c-17.001-9.6-36.202-14.4-57.6-14.4c-21.6,0-40.903,4.8-57.9,14.4
			c-17.001,9.6-30.403,22.852-40.2,39.75c-9.802,16.903-14.7,36.352-14.7,58.35c0,21.802,4.898,41.203,14.7,58.2
			c9.797,17.001,23.198,30.3,40.2,39.9C1780.324-67.857,1799.627-63.057,1821.227-63.057z"/>
		<path fill="#FFFFFF" d="M1581.779-370.6c-11.1-3.497-22.852-5.25-35.25-5.25c-20.001,0-36.952,4.65-50.85,13.95
			c-13.903,9.3-24.501,22.753-31.8,40.35c-7.303,17.602-10.95,38.803-10.95,63.6v21.851h-33.9v44.1h33.9v170.042h58.2v-170.042h76.5
			v-44.1h-76.5v-22.151c0-13.599,1.5-25.35,4.5-35.25s7.8-17.55,14.4-22.95s15.398-8.1,26.4-8.1c13.397,0,24.699,3.403,33.9,10.2
			l20.4-41.4C1602.526-362.148,1592.879-367.098,1581.779-370.6z"/>
	</g>
	<g>
		<path fill="#FFFFFF" d="M956.928,849.804c7.185,0,13.77,1.797,19.755,5.389c5.985,3.59,10.775,8.38,14.368,14.366
			c3.59,5.985,5.386,12.57,5.386,19.755c0,7.183-1.795,13.766-5.386,19.753c-3.592,5.987-8.382,10.724-14.368,14.217
			c-5.985,3.489-12.57,5.239-19.755,5.239c-7.183,0-13.768-1.75-19.753-5.239c-5.985-3.492-10.724-8.229-14.217-14.217
			c-3.489-5.987-5.239-12.57-5.239-19.753c0-7.185,1.75-13.77,5.239-19.755c3.492-5.985,8.231-10.775,14.217-14.366
			C943.161,851.601,949.746,849.804,956.928,849.804z"/>
		<path fill="#FFFFFF" d="M2527.182,637.529c-207.264,0-375.284,168.021-375.284,375.284c0,207.263,168.02,375.284,375.284,375.284
			s375.284-168.02,375.284-375.284C2902.466,805.55,2734.446,637.529,2527.182,637.529z M2615.291,888.274h57.183v306.653h-57.183
			V888.274z M2352.857,869.259c3.592-5.987,8.382-10.724,14.367-14.217c5.985-3.489,12.571-5.239,19.755-5.239
			c7.183,0,13.768,1.75,19.753,5.239c5.986,3.492,10.724,8.229,14.217,14.217c3.489,5.987,5.239,12.571,5.239,19.753
			c0,7.185-1.75,13.77-5.239,19.755c-3.492,5.985-8.231,10.775-14.217,14.366c-5.985,3.592-12.57,5.389-19.753,5.389
			c-7.185,0-13.77-1.797-19.755-5.389c-5.985-3.591-10.775-8.38-14.367-14.366c-3.591-5.985-5.386-12.571-5.386-19.755
			C2347.471,881.83,2349.266,875.247,2352.857,869.259z M2555.772,1166.038h-56.58v-26.88c-0.2,0.15-0.4,0.31-0.6,0.46
			c-7.38,5.71-15.35,10.82-23.9,15.34c-26.05,13.77-55.33,20.66-87.85,20.66c-32.53,0-61.81-6.89-87.86-20.66
			c-26.03-13.77-46.69-32.92-61.94-57.47c-15.28-24.54-22.91-52.77-22.91-84.69c0-32.13,7.63-60.4,22.91-84.85
			c15.25-24.45,35.91-43.56,61.94-57.33c7.67-4.05,15.62-7.49,23.84-10.35v58.48h0.25c-14.01,9.17-25.27,21.12-33.8,35.83
			c-9.79,16.86-14.68,36.26-14.68,58.22c0,21.74,4.89,41.11,14.68,58.06c9.77,16.96,23.13,30.22,40.11,39.8
			c16.95,9.58,36.2,14.37,57.75,14.37c21.36,0,40.52-4.79,57.47-14.37s30.34-22.84,40.11-39.8c7.52-13.05,12.16-27.51,13.88-43.39
			c0.27-2.47,0.47-4.98,0.6-7.53v-14.36c-0.13-2.57-0.33-5.1-0.6-7.59c-1.74-15.98-6.36-30.45-13.88-43.41
			c-8.54-14.73-19.84-26.69-33.86-35.86v-58.45c8.22,2.86,16.17,6.3,23.84,10.35c8.55,4.53,16.52,9.63,23.9,15.33
			c0.2,0.15,0.4,0.31,0.6,0.46v-165.4h56.58V1166.038z M2678.004,1278.902c-3.492,5.986-8.229,10.724-14.217,14.217
			c-5.987,3.489-12.57,5.239-19.753,5.239c-7.185,0-13.77-1.75-19.755-5.239c-5.985-3.492-10.775-8.231-14.366-14.217
			c-3.592-5.985-5.389-12.57-5.389-19.753c0-7.185,1.797-13.77,5.389-19.755c3.591-5.985,8.38-10.775,14.366-14.367
			c5.985-3.591,12.57-5.386,19.755-5.386c7.183,0,13.766,1.795,19.753,5.386c5.987,3.592,10.724,8.382,14.217,14.367
			c3.489,5.985,5.239,12.57,5.239,19.755C2683.243,1266.332,2681.493,1272.917,2678.004,1278.902z"/>
		<rect x="927.979" y="953.237" fill="#FFFFFF" width="58.2" height="213.282"/>
		<path fill="#FFFFFF" d="M1081.453,1166.518V890.337h58.2v39.6c9.398-13.997,22.898-25.697,40.5-35.1
			c17.597-9.398,38.498-14.1,62.7-14.1c23.798,0,44.4,4.95,61.8,14.85c17.4,9.9,30.848,24.15,40.35,42.75
			c9.497,18.6,14.25,40.8,14.25,66.6v161.581h-58.2v-149.88c0-28.8-6.9-50.897-20.7-66.3c-13.8-15.398-33.202-23.1-58.2-23.1
			c-17.203,0-31.95,3.45-44.25,10.35c-12.3,6.9-21.75,16.102-28.35,27.6c-6.6,11.503-9.9,24.052-9.9,37.65v163.681H1081.453z"/>
		<path fill="#FFFFFF" d="M1820.927,1176.118c-32.602,0-61.95-6.9-88.05-20.7c-26.1-13.8-46.8-33-62.1-57.6
			c-15.3-24.6-22.95-52.898-22.95-84.9c0-32.198,7.65-60.548,22.95-85.05c15.3-24.497,36-43.65,62.1-57.45
			c26.1-13.8,55.448-20.7,88.05-20.7c32.597,0,61.95,6.9,88.05,20.7c26.1,13.8,46.8,32.953,62.1,57.45
			c15.3,24.501,22.95,52.852,22.95,85.05c0,32.001-7.649,60.3-22.95,84.9c-15.3,24.6-36,43.8-62.1,57.6
			C1882.877,1169.218,1853.524,1176.118,1820.927,1176.118z M1821.227,1125.418c21.398,0,40.599-4.8,57.6-14.4
			c16.997-9.6,30.398-22.898,40.2-39.9c9.797-16.997,14.7-36.398,14.7-58.2c0-21.999-4.903-41.447-14.7-58.35
			c-9.802-16.898-23.203-30.15-40.2-39.75c-17.001-9.6-36.202-14.4-57.6-14.4c-21.6,0-40.903,4.8-57.9,14.4
			c-17.001,9.6-30.403,22.852-40.2,39.75c-9.802,16.903-14.7,36.352-14.7,58.35c0,21.802,4.898,41.203,14.7,58.2
			c9.797,17.001,23.198,30.3,40.2,39.9C1780.324,1120.618,1799.627,1125.418,1821.227,1125.418z"/>
		<path fill="#FFFFFF" d="M1581.779,817.876c-11.1-3.497-22.852-5.25-35.25-5.25c-20.001,0-36.952,4.65-50.85,13.95
			c-13.903,9.3-24.501,22.753-31.8,40.35c-7.303,17.602-10.95,38.803-10.95,63.6v21.851h-33.9v44.1h33.9v170.042h58.2V996.476h76.5
			v-44.1h-76.5v-22.151c0-13.599,1.5-25.35,4.5-35.25s7.8-17.55,14.4-22.95s15.398-8.1,26.4-8.1c13.397,0,24.699,3.403,33.9,10.2
			l20.4-41.4C1602.526,826.327,1592.879,821.377,1581.779,817.876z"/>
	</g>
	<g>
		<path fill="#3F3F3F" d="M-290.991-3808.75v445.03h-56.58v-26.88c-0.2,0.15-0.4,0.31-0.6,0.46c-7.38,5.71-15.35,10.82-23.9,15.34
			c-26.05,13.77-55.33,20.66-87.85,20.66c-32.53,0-61.81-6.89-87.86-20.66c-26.03-13.77-46.69-32.92-61.94-57.47
			c-15.28-24.54-22.91-52.77-22.91-84.69c0-32.13,7.63-60.4,22.91-84.85c15.25-24.45,35.91-43.56,61.94-57.33
			c7.67-4.05,15.62-7.49,23.84-10.35v58.48h0.25c-14.01,9.17-25.27,21.12-33.8,35.83c-9.79,16.86-14.68,36.26-14.68,58.22
			c0,21.74,4.89,41.11,14.68,58.06c9.77,16.96,23.13,30.22,40.11,39.8c16.95,9.58,36.2,14.37,57.75,14.37
			c21.36,0,40.52-4.79,57.47-14.37c16.95-9.58,30.34-22.84,40.11-39.8c7.52-13.05,12.16-27.51,13.88-43.39
			c0.27-2.47,0.47-4.98,0.6-7.53v-14.36c-0.13-2.57-0.33-5.1-0.6-7.59c-1.74-15.98-6.36-30.45-13.88-43.41
			c-8.54-14.73-19.84-26.69-33.86-35.86v-58.45c8.22,2.86,16.17,6.3,23.84,10.35c8.55,4.53,16.52,9.63,23.9,15.33
			c0.2,0.15,0.4,0.31,0.6,0.46v-165.4H-290.991z"/>
		<path fill="#3F3F3F" d="M-459.784-3601.235c-7.185,0-13.77-1.797-19.755-5.39c-5.985-3.59-10.775-8.38-14.368-14.366
			c-3.59-5.985-5.386-12.57-5.386-19.755c0-7.183,1.795-13.766,5.386-19.753c3.592-5.987,8.382-10.724,14.368-14.217
			c5.985-3.489,12.57-5.239,19.755-5.239c7.183,0,13.768,1.75,19.753,5.239c5.985,3.492,10.724,8.229,14.217,14.217
			c3.489,5.987,5.239,12.571,5.239,19.753c0,7.185-1.75,13.77-5.239,19.755c-3.492,5.986-8.231,10.775-14.217,14.366
			C-446.016-3603.032-452.601-3601.235-459.784-3601.235z"/>
		<g>
			<path fill="#3F3F3F" d="M-1681.781-3679.954c7.185,0,13.77,1.79,19.755,5.368c5.985,3.576,10.775,8.346,14.368,14.307
				c3.59,5.961,5.386,12.519,5.386,19.675c0,7.154-1.795,13.71-5.386,19.673c-3.592,5.963-8.382,10.681-14.368,14.159
				c-5.985,3.474-12.57,5.217-19.755,5.217c-7.183,0-13.768-1.743-19.753-5.217c-5.985-3.478-10.724-8.196-14.217-14.159
				c-3.489-5.963-5.239-12.519-5.239-19.673c0-7.155,1.75-13.714,5.239-19.675c3.492-5.961,8.231-10.731,14.217-14.307
				C-1695.548-3678.164-1688.964-3679.954-1681.781-3679.954z"/>
			<rect x="-1710.731" y="-3576.943" fill="#3F3F3F" width="58.2" height="212.413"/>
		</g>
		<path fill="#3F3F3F" d="M-738.176-3679.954c7.185,0,13.77,1.79,19.755,5.368c5.985,3.576,10.775,8.346,14.368,14.307
			c3.59,5.961,5.386,12.519,5.386,19.675c0,7.154-1.795,13.71-5.386,19.673c-3.592,5.963-8.382,10.681-14.368,14.159
			c-5.985,3.474-12.57,5.217-19.755,5.217c-7.183,0-13.768-1.743-19.753-5.217c-5.985-3.478-10.724-8.196-14.217-14.159
			c-3.489-5.963-5.239-12.519-5.239-19.673c0-7.155,1.75-13.714,5.239-19.675c3.492-5.961,8.231-10.731,14.217-14.307
			C-751.944-3678.164-745.359-3679.954-738.176-3679.954z"/>
		<rect x="-767.126" y="-3576.943" fill="#3F3F3F" width="58.2" height="212.413"/>
		<rect x="-1862.871" y="-3808.75" fill="#3F3F3F" width="57.183" height="444.729"/>
		<path fill="#3F3F3F" d="M-1234.349-3225.204v-445.17h-57.18v26.88c-7.55-5.89-15.72-11.16-24.51-15.8
			c-26.04-13.77-55.32-20.66-87.84-20.66c-32.53,0-61.81,6.89-87.86,20.66c-26.03,13.77-46.69,32.93-61.95,57.47
			c-15.27,24.54-22.9,52.77-22.9,84.69c0,32.13,7.63,60.41,22.9,84.85c15.26,24.45,35.92,43.57,61.95,57.33
			c26.05,13.77,55.33,20.65,87.86,20.65c32.52,0,61.8-6.88,87.84-20.65c8.79-4.65,16.96-9.9,24.51-15.79v165.54H-1234.349z
			 M-1291.529-3509.914c-0.97,19.03-5.79,36.02-14.48,51c-9.77,16.86-23.16,30.09-40.11,39.67c-16.95,9.57-36.11,14.36-57.47,14.36
			c-21.55,0-40.8-4.79-57.75-14.36c-16.98-9.58-30.34-22.81-40.11-39.67c-9.79-16.85-14.68-36.26-14.68-58.22
			c0-21.74,4.89-41.11,14.68-58.06c9.77-16.96,23.13-30.22,40.11-39.8c16.95-9.58,36.2-14.37,57.75-14.37
			c21.36,0,40.52,4.79,57.47,14.37c16.95,9.58,30.34,22.84,40.11,39.8c8.69,15.08,13.53,32.05,14.48,50.92V-3509.914z"/>
		<path fill="#3F3F3F" d="M-920.871-3670.34v7.222v64.843v94.06c0,36.708-6.102,62.854-18.267,78.418
			c-2.877,3.669-6.218,6.913-10.041,9.713c-15.429,7.492-32.596,11.239-51.462,11.239c-19.445,0-37.037-3.901-52.736-11.721
			c-3.533-2.703-6.662-5.774-9.365-9.23c-12.185-15.564-18.267-41.709-18.267-78.418v-93.77v-65.133v-7.222h-58.066v52.06v126.037
			c0,49.492,10.679,84.848,32.036,106.109c0.077,0.077,0.154,0.155,0.251,0.232c20.855,20.604,54.976,31.147,102.324,31.63
			c1.178,0.019,2.356,0.019,3.534,0.019c1.487,0,2.973-0.019,4.441-0.039c46.885-0.637,80.697-11.18,101.397-31.61
			c0.097-0.077,0.174-0.155,0.251-0.232c21.357-21.26,32.036-56.617,32.036-106.109v-126.037v-52.06H-920.871z"/>
	</g>
	<g>
		<path fill="#3F3F3F" d="M956.928-3679.986c7.185,0,13.77,1.797,19.755,5.39c5.985,3.59,10.775,8.38,14.367,14.365
			c3.591,5.986,5.386,12.571,5.386,19.755c0,7.183-1.795,13.766-5.386,19.753c-3.592,5.987-8.382,10.724-14.367,14.217
			c-5.985,3.489-12.57,5.239-19.755,5.239c-7.183,0-13.768-1.75-19.753-5.239c-5.985-3.492-10.724-8.229-14.217-14.217
			c-3.489-5.987-5.239-12.571-5.239-19.753c0-7.185,1.75-13.77,5.239-19.755c3.492-5.985,8.231-10.775,14.217-14.365
			C943.16-3678.189,949.745-3679.986,956.928-3679.986z"/>
		<rect x="927.978" y="-3576.554" fill="#3F3F3F" width="58.2" height="213.282"/>
		<path fill="#3F3F3F" d="M1081.452-3363.272v-276.181h58.2v39.6c9.398-13.997,22.898-25.697,40.5-35.1
			c17.597-9.398,38.498-14.1,62.7-14.1c23.798,0,44.4,4.95,61.8,14.85c17.4,9.9,30.848,24.15,40.35,42.75
			c9.497,18.6,14.25,40.8,14.25,66.6v161.581h-58.2v-149.88c0-28.8-6.9-50.897-20.7-66.3c-13.8-15.398-33.202-23.1-58.2-23.1
			c-17.203,0-31.95,3.45-44.25,10.35c-12.3,6.9-21.75,16.102-28.35,27.6c-6.6,11.503-9.9,24.052-9.9,37.65v163.681H1081.452z"/>
		<path fill="#3F3F3F" d="M1820.927-3353.672c-32.602,0-61.95-6.9-88.05-20.7c-26.1-13.8-46.8-33-62.1-57.6
			c-15.3-24.6-22.95-52.898-22.95-84.9c0-32.198,7.65-60.548,22.95-85.05c15.3-24.497,36-43.65,62.1-57.45
			c26.1-13.8,55.448-20.7,88.05-20.7c32.597,0,61.95,6.9,88.05,20.7c26.1,13.8,46.8,32.953,62.1,57.45
			c15.3,24.501,22.95,52.852,22.95,85.05c0,32.001-7.649,60.3-22.95,84.9c-15.3,24.6-36,43.8-62.1,57.6
			C1882.877-3360.572,1853.523-3353.672,1820.927-3353.672z M1821.226-3404.373c21.398,0,40.599-4.8,57.6-14.4
			c16.997-9.6,30.398-22.898,40.2-39.9c9.797-16.997,14.7-36.398,14.7-58.2c0-21.999-4.903-41.447-14.7-58.35
			c-9.802-16.898-23.203-30.15-40.2-39.75c-17.001-9.6-36.202-14.4-57.6-14.4c-21.6,0-40.903,4.8-57.9,14.4
			c-17.001,9.6-30.403,22.852-40.2,39.75c-9.802,16.903-14.7,36.352-14.7,58.35c0,21.802,4.898,41.203,14.7,58.2
			c9.797,17.001,23.198,30.3,40.2,39.9C1780.324-3409.172,1799.627-3404.373,1821.226-3404.373z"/>
		<path fill="#3F3F3F" d="M1581.778-3711.915c-11.1-3.497-22.852-5.25-35.25-5.25c-20.001,0-36.952,4.65-50.85,13.95
			c-13.903,9.3-24.501,22.753-31.8,40.35c-7.303,17.602-10.95,38.803-10.95,63.6v21.851h-33.9v44.1h33.9v170.042h58.2v-170.042h76.5
			v-44.1h-76.5v-22.151c0-13.599,1.5-25.35,4.5-35.25s7.8-17.55,14.4-22.95s15.398-8.1,26.4-8.1c13.397,0,24.699,3.403,33.9,10.2
			l20.4-41.4C1602.526-3703.463,1592.879-3708.413,1581.778-3711.915z"/>
		<path fill="#3F3F3F" d="M2527.182-3892.261c-207.263,0-375.284,168.02-375.284,375.284s168.021,375.284,375.284,375.284
			c207.264,0,375.284-168.02,375.284-375.284S2734.446-3892.261,2527.182-3892.261z M2615.291-3641.516h57.183v306.653h-57.183
			V-3641.516z M2352.856-3660.531c3.592-5.987,8.382-10.724,14.367-14.217c5.985-3.489,12.571-5.239,19.755-5.239
			c7.183,0,13.768,1.75,19.753,5.239c5.985,3.492,10.724,8.229,14.217,14.217c3.489,5.987,5.239,12.571,5.239,19.753
			c0,7.185-1.75,13.77-5.239,19.755c-3.492,5.985-8.231,10.775-14.217,14.366c-5.986,3.592-12.571,5.389-19.753,5.389
			c-7.185,0-13.77-1.797-19.755-5.389c-5.985-3.591-10.775-8.38-14.367-14.366c-3.591-5.985-5.386-12.571-5.386-19.755
			C2347.471-3647.96,2349.266-3654.544,2352.856-3660.531z M2555.771-3363.752h-56.58v-26.88c-0.2,0.15-0.4,0.31-0.6,0.46
			c-7.38,5.71-15.35,10.82-23.9,15.34c-26.05,13.77-55.33,20.66-87.85,20.66c-32.53,0-61.81-6.89-87.86-20.66
			c-26.03-13.77-46.69-32.92-61.94-57.47c-15.28-24.54-22.91-52.77-22.91-84.69c0-32.13,7.63-60.4,22.91-84.85
			c15.25-24.45,35.91-43.56,61.94-57.33c7.67-4.05,15.62-7.49,23.84-10.35v58.48h0.25c-14.01,9.17-25.27,21.12-33.8,35.83
			c-9.79,16.86-14.68,36.26-14.68,58.22c0,21.74,4.89,41.11,14.68,58.06c9.77,16.96,23.13,30.22,40.11,39.8
			c16.95,9.58,36.2,14.37,57.75,14.37c21.36,0,40.52-4.79,57.47-14.37s30.34-22.84,40.11-39.8c7.52-13.05,12.16-27.51,13.88-43.39
			c0.27-2.47,0.47-4.98,0.6-7.53v-14.36c-0.13-2.57-0.33-5.1-0.6-7.59c-1.74-15.98-6.36-30.45-13.88-43.41
			c-8.54-14.73-19.84-26.69-33.86-35.86v-58.45c8.22,2.86,16.17,6.3,23.84,10.35c8.55,4.53,16.52,9.63,23.9,15.33
			c0.2,0.15,0.4,0.31,0.6,0.46v-165.4h56.58V-3363.752z M2678.004-3250.888c-3.492,5.985-8.229,10.724-14.217,14.217
			c-5.987,3.489-12.57,5.239-19.753,5.239c-7.185,0-13.77-1.75-19.755-5.239c-5.985-3.492-10.775-8.231-14.366-14.217
			c-3.592-5.985-5.389-12.57-5.389-19.753c0-7.185,1.797-13.77,5.389-19.755c3.591-5.985,8.38-10.775,14.366-14.368
			c5.985-3.59,12.57-5.385,19.755-5.385c7.183,0,13.766,1.795,19.753,5.385c5.987,3.593,10.724,8.382,14.217,14.368
			c3.489,5.985,5.239,12.57,5.239,19.755C2683.242-3263.458,2681.492-3256.873,2678.004-3250.888z"/>
	</g>
	<g>
		<path fill="#3F3F3F" d="M10.757-98.579c0.861,0,1.65,0.215,2.368,0.646c0.717,0.43,1.291,1.004,1.722,1.722
			c0.43,0.717,0.646,1.507,0.646,2.368c0,0.861-0.215,1.65-0.646,2.368c-0.431,0.718-1.005,1.285-1.722,1.704
			c-0.717,0.418-1.507,0.628-2.368,0.628c-0.861,0-1.65-0.21-2.368-0.628c-0.717-0.419-1.285-0.986-1.704-1.704
			c-0.418-0.718-0.628-1.507-0.628-2.368c0-0.861,0.21-1.65,0.628-2.368c0.419-0.717,0.987-1.291,1.704-1.722
			C9.107-98.364,9.896-98.579,10.757-98.579z"/>
		<circle fill="#00D6D3" cx="198.962" cy="-79.041" r="44.98"/>
		<path fill="#FFFFFF" d="M202.389-114.016v53.34h-6.782v-3.222c-0.024,0.018-0.048,0.037-0.072,0.055
			c-0.885,0.684-1.84,1.297-2.865,1.839c-3.122,1.65-6.632,2.476-10.529,2.476c-3.899,0-7.408-0.826-10.531-2.476
			c-3.12-1.65-5.596-3.946-7.424-6.888c-1.831-2.941-2.746-6.325-2.746-10.151c0-3.851,0.915-7.239,2.746-10.17
			c1.828-2.931,4.304-5.221,7.424-6.871c0.919-0.485,1.872-0.898,2.857-1.241v7.009h0.03c-1.679,1.099-3.029,2.531-4.051,4.294
			c-1.173,2.021-1.76,4.346-1.76,6.978c0,2.606,0.586,4.927,1.76,6.959c1.171,2.033,2.772,3.622,4.807,4.77
			c2.032,1.148,4.339,1.722,6.922,1.722c2.56,0,4.857-0.574,6.888-1.722c2.032-1.148,3.636-2.738,4.807-4.77
			c0.901-1.564,1.457-3.297,1.664-5.201c0.032-0.296,0.056-0.597,0.072-0.903v-1.721c-0.016-0.308-0.04-0.611-0.072-0.91
			c-0.209-1.915-0.762-3.65-1.664-5.203c-1.024-1.765-2.378-3.199-4.058-4.298v-7.006c0.985,0.343,1.938,0.755,2.857,1.241
			c1.025,0.543,1.98,1.154,2.865,1.837c0.024,0.018,0.048,0.037,0.072,0.055v-19.824H202.389z"/>
		<rect x="209.523" y="-93.968" fill="#3F3F3F" width="6.854" height="36.754"/>
		<path fill="#3F3F3F" d="M182.158-89.144c-0.861,0-1.65-0.215-2.368-0.646c-0.717-0.43-1.291-1.004-1.722-1.722
			c-0.43-0.717-0.646-1.507-0.646-2.368c0-0.861,0.215-1.65,0.646-2.368c0.431-0.718,1.005-1.285,1.722-1.704
			c0.717-0.418,1.507-0.628,2.368-0.628c0.861,0,1.65,0.21,2.368,0.628c0.717,0.419,1.285,0.986,1.704,1.704
			c0.418,0.718,0.628,1.507,0.628,2.368c0,0.861-0.21,1.65-0.628,2.368c-0.419,0.717-0.987,1.291-1.704,1.722
			C183.808-89.359,183.019-89.144,182.158-89.144z"/>
		<path fill="#3F3F3F" d="M208.232-49.516c0-0.861,0.215-1.65,0.646-2.368c0.43-0.717,1.004-1.291,1.722-1.722
			c0.717-0.43,1.507-0.646,2.368-0.646c0.861,0,1.65,0.215,2.368,0.646c0.718,0.431,1.285,1.005,1.704,1.722
			c0.418,0.717,0.628,1.507,0.628,2.368c0,0.861-0.21,1.65-0.628,2.368c-0.419,0.717-0.986,1.285-1.704,1.704
			c-0.718,0.418-1.507,0.628-2.368,0.628c-0.861,0-1.65-0.21-2.368-0.628c-0.717-0.419-1.291-0.987-1.722-1.704
			C208.448-47.866,208.232-48.655,208.232-49.516z"/>
		<rect x="7.287" y="-86.182" fill="#00D6D3" width="6.976" height="25.563"/>
		<path fill="#3F3F3F" d="M25.682-60.619v-33.102h6.976v4.746c1.126-1.678,2.745-3.08,4.854-4.207
			c2.109-1.126,4.614-1.69,7.515-1.69c2.852,0,5.322,0.593,7.407,1.78c2.085,1.187,3.697,2.895,4.836,5.124
			c1.138,2.229,1.708,4.89,1.708,7.982v19.367h-6.976v-17.964c0-3.452-0.827-6.1-2.481-7.947c-1.654-1.846-3.979-2.769-6.976-2.769
			c-2.062,0-3.829,0.413-5.304,1.24c-1.474,0.827-2.607,1.93-3.398,3.308c-0.791,1.379-1.187,2.883-1.187,4.513v19.618H25.682z"/>
		<path fill="#3F3F3F" d="M114.313-59.468c-3.908,0-7.425-0.827-10.553-2.481c-3.128-1.654-5.609-3.955-7.443-6.904
			c-1.834-2.948-2.751-6.34-2.751-10.176c0-3.859,0.917-7.257,2.751-10.194c1.834-2.936,4.315-5.232,7.443-6.886
			c3.128-1.654,6.646-2.481,10.553-2.481c3.907,0,7.425,0.827,10.553,2.481c3.128,1.654,5.609,3.95,7.443,6.886
			c1.834,2.937,2.751,6.335,2.751,10.194c0,3.836-0.917,7.227-2.751,10.176c-1.834,2.948-4.315,5.25-7.443,6.904
			C121.738-60.295,118.22-59.468,114.313-59.468z M114.349-65.545c2.565,0,4.866-0.575,6.904-1.726
			c2.037-1.151,3.643-2.745,4.818-4.782c1.174-2.037,1.762-4.363,1.762-6.976c0-2.637-0.588-4.968-1.762-6.994
			c-1.175-2.025-2.781-3.614-4.818-4.764c-2.038-1.151-4.339-1.726-6.904-1.726c-2.589,0-4.902,0.575-6.94,1.726
			c-2.038,1.151-3.644,2.739-4.818,4.764c-1.175,2.026-1.762,4.357-1.762,6.994c0,2.613,0.587,4.938,1.762,6.976
			c1.174,2.038,2.78,3.632,4.818,4.782C109.446-66.12,111.76-65.545,114.349-65.545z"/>
		<path fill="#3F3F3F" d="M85.649-102.406c-1.33-0.419-2.739-0.629-4.225-0.629c-2.397,0-4.429,0.557-6.095,1.672
			c-1.666,1.115-2.937,2.727-3.811,4.836c-0.875,2.11-1.312,4.651-1.312,7.623v2.619h-4.063v5.286h4.063v20.381h6.976v-20.381h9.169
			v-5.286h-9.169v-2.655c0-1.63,0.18-3.038,0.539-4.225c0.36-1.187,0.935-2.104,1.726-2.751c0.791-0.647,1.846-0.971,3.164-0.971
			c1.606,0,2.96,0.408,4.063,1.223l2.445-4.962C88.136-101.393,86.98-101.986,85.649-102.406z"/>
	</g>
	<g>
		<path fill="#FFFFFF" d="M10.757,35.732c0.861,0,1.65,0.215,2.368,0.646c0.717,0.43,1.291,1.004,1.722,1.722
			c0.43,0.717,0.646,1.507,0.646,2.368c0,0.861-0.215,1.65-0.646,2.368c-0.431,0.718-1.005,1.285-1.722,1.704
			c-0.717,0.418-1.507,0.628-2.368,0.628c-0.861,0-1.65-0.21-2.368-0.628c-0.717-0.419-1.285-0.986-1.704-1.704
			c-0.418-0.718-0.628-1.507-0.628-2.368c0-0.861,0.21-1.65,0.628-2.368c0.419-0.717,0.987-1.291,1.704-1.722
			C9.107,35.948,9.896,35.732,10.757,35.732z"/>
		<rect x="7.287" y="48.129" fill="#00D6D3" width="6.976" height="25.563"/>
		<path fill="#FFFFFF" d="M25.682,73.692V40.59h6.976v4.746c1.126-1.678,2.745-3.08,4.854-4.207c2.109-1.126,4.614-1.69,7.515-1.69
			c2.852,0,5.322,0.593,7.407,1.78c2.085,1.187,3.697,2.895,4.836,5.124c1.138,2.229,1.708,4.89,1.708,7.982v19.367h-6.976V55.728
			c0-3.452-0.827-6.1-2.481-7.947c-1.654-1.846-3.979-2.769-6.976-2.769c-2.062,0-3.829,0.413-5.304,1.24
			c-1.474,0.827-2.607,1.93-3.398,3.308c-0.791,1.379-1.187,2.883-1.187,4.513v19.618H25.682z"/>
		<path fill="#FFFFFF" d="M114.313,74.843c-3.908,0-7.425-0.827-10.553-2.481c-3.128-1.654-5.609-3.955-7.443-6.904
			c-1.834-2.948-2.751-6.34-2.751-10.176c0-3.859,0.917-7.257,2.751-10.194c1.834-2.936,4.315-5.232,7.443-6.886
			c3.128-1.654,6.646-2.481,10.553-2.481c3.907,0,7.425,0.827,10.553,2.481c3.128,1.654,5.609,3.95,7.443,6.886
			c1.834,2.937,2.751,6.335,2.751,10.194c0,3.836-0.917,7.227-2.751,10.176c-1.834,2.948-4.315,5.25-7.443,6.904
			C121.738,74.016,118.22,74.843,114.313,74.843z M114.349,68.766c2.565,0,4.866-0.575,6.904-1.726
			c2.037-1.151,3.643-2.745,4.818-4.782c1.174-2.037,1.762-4.363,1.762-6.976c0-2.637-0.588-4.968-1.762-6.994
			c-1.175-2.025-2.781-3.614-4.818-4.764c-2.038-1.151-4.339-1.726-6.904-1.726c-2.589,0-4.902,0.575-6.94,1.726
			c-2.038,1.151-3.644,2.739-4.818,4.764c-1.175,2.026-1.762,4.357-1.762,6.994c0,2.613,0.587,4.938,1.762,6.976
			c1.174,2.038,2.78,3.632,4.818,4.782C109.446,68.191,111.76,68.766,114.349,68.766z"/>
		<path fill="#FFFFFF" d="M85.649,31.905c-1.33-0.419-2.739-0.629-4.225-0.629c-2.397,0-4.429,0.557-6.095,1.672
			c-1.666,1.115-2.937,2.727-3.811,4.836c-0.875,2.11-1.312,4.651-1.312,7.623v2.619h-4.063v5.286h4.063v20.381h6.976V53.312h9.169
			v-5.286h-9.169v-2.655c0-1.63,0.18-3.038,0.539-4.225c0.36-1.187,0.935-2.104,1.726-2.751c0.791-0.647,1.846-0.971,3.164-0.971
			c1.606,0,2.96,0.408,4.063,1.223l2.445-4.962C88.136,32.918,86.98,32.325,85.649,31.905z"/>
		<path fill="#00D6D3" d="M198.962,10.29c-24.842,0-44.98,20.138-44.98,44.98c0,24.842,20.138,44.98,44.98,44.98
			s44.98-20.138,44.98-44.98C243.943,30.428,223.804,10.29,198.962,10.29z M186.23,42.799c-0.419,0.718-0.987,1.292-1.704,1.722
			c-0.717,0.43-1.507,0.646-2.367,0.646c-0.861,0-1.651-0.216-2.368-0.646c-0.717-0.43-1.292-1.004-1.722-1.722
			s-0.646-1.507-0.646-2.368c0-0.861,0.215-1.65,0.646-2.367s1.005-1.285,1.722-1.704c0.717-0.418,1.507-0.628,2.368-0.628
			c0.861,0,1.65,0.21,2.367,0.628c0.717,0.418,1.285,0.986,1.704,1.704c0.418,0.718,0.628,1.507,0.628,2.367
			C186.857,41.293,186.648,42.082,186.23,42.799z M209.523,40.343h6.854v36.754h-6.854V40.343z M217.039,87.162
			c-0.418,0.718-0.986,1.285-1.704,1.704c-0.718,0.418-1.507,0.628-2.368,0.628c-0.861,0-1.651-0.21-2.368-0.628
			c-0.717-0.419-1.292-0.987-1.722-1.704c-0.43-0.717-0.646-1.507-0.646-2.367c0-0.861,0.215-1.65,0.646-2.368
			c0.43-0.717,1.005-1.292,1.722-1.722c0.717-0.43,1.507-0.646,2.368-0.646c0.861,0,1.65,0.215,2.368,0.646
			c0.718,0.43,1.285,1.005,1.704,1.722c0.418,0.718,0.628,1.507,0.628,2.368C217.667,85.656,217.457,86.445,217.039,87.162z"/>
		<path fill="#FFFFFF" d="M202.389,20.295v53.34h-6.782v-3.222c-0.024,0.018-0.048,0.037-0.072,0.055
			c-0.885,0.684-1.84,1.297-2.865,1.839c-3.122,1.65-6.632,2.476-10.529,2.476c-3.899,0-7.408-0.826-10.531-2.476
			c-3.12-1.65-5.596-3.946-7.424-6.888c-1.831-2.941-2.746-6.325-2.746-10.151c0-3.851,0.915-7.239,2.746-10.17
			c1.828-2.931,4.304-5.221,7.424-6.871c0.919-0.485,1.872-0.898,2.857-1.241v7.009h0.03c-1.679,1.099-3.029,2.531-4.051,4.294
			c-1.173,2.021-1.76,4.346-1.76,6.978c0,2.606,0.586,4.927,1.76,6.959c1.171,2.033,2.772,3.622,4.807,4.77
			c2.032,1.148,4.339,1.722,6.922,1.722c2.56,0,4.857-0.574,6.888-1.722c2.032-1.148,3.636-2.738,4.807-4.77
			c0.901-1.564,1.457-3.297,1.664-5.201c0.032-0.296,0.056-0.597,0.072-0.903v-1.721c-0.016-0.308-0.04-0.611-0.072-0.91
			c-0.209-1.915-0.762-3.65-1.664-5.203c-1.024-1.765-2.378-3.199-4.058-4.298v-7.006c0.985,0.343,1.938,0.755,2.857,1.241
			c1.025,0.543,1.98,1.154,2.865,1.837c0.024,0.018,0.048,0.037,0.072,0.055V20.295H202.389z"/>
	</g>
	<g>
		<path d="M10.757-239.268c0.861,0,1.65,0.215,2.368,0.646c0.717,0.43,1.291,1.004,1.722,1.722c0.43,0.717,0.646,1.507,0.646,2.368
			c0,0.861-0.215,1.65-0.646,2.368c-0.431,0.718-1.005,1.285-1.722,1.704c-0.717,0.418-1.507,0.628-2.368,0.628
			c-0.861,0-1.65-0.21-2.368-0.628c-0.717-0.419-1.285-0.986-1.704-1.704c-0.418-0.718-0.628-1.507-0.628-2.368
			c0-0.861,0.21-1.65,0.628-2.368c0.419-0.717,0.987-1.291,1.704-1.722C9.107-239.052,9.896-239.268,10.757-239.268z"/>
		<path d="M198.962-264.71c-24.842,0-44.98,20.138-44.98,44.98c0,24.842,20.138,44.98,44.98,44.98s44.98-20.138,44.98-44.98
			C243.943-244.572,223.804-264.71,198.962-264.71z M209.523-234.657h6.854v36.754h-6.854V-234.657z M178.068-236.936
			c0.43-0.718,1.005-1.285,1.722-1.704c0.717-0.418,1.507-0.628,2.368-0.628c0.861,0,1.65,0.21,2.367,0.628
			c0.717,0.418,1.285,0.986,1.704,1.704c0.418,0.718,0.628,1.507,0.628,2.367c0,0.861-0.21,1.65-0.628,2.368
			c-0.419,0.718-0.987,1.292-1.704,1.722c-0.717,0.43-1.507,0.646-2.367,0.646c-0.861,0-1.651-0.216-2.368-0.646
			c-0.717-0.43-1.292-1.004-1.722-1.722s-0.646-1.507-0.646-2.368C177.423-235.429,177.638-236.218,178.068-236.936z
			 M202.389-201.365h-6.782v-3.222c-0.024,0.018-0.048,0.037-0.072,0.055c-0.885,0.684-1.84,1.297-2.865,1.839
			c-3.122,1.65-6.632,2.476-10.529,2.476c-3.899,0-7.408-0.826-10.531-2.476c-3.12-1.65-5.596-3.946-7.424-6.888
			c-1.831-2.941-2.746-6.325-2.746-10.151c0-3.851,0.915-7.24,2.746-10.17c1.828-2.93,4.304-5.221,7.424-6.871
			c0.919-0.485,1.872-0.898,2.857-1.24v7.009h0.03c-1.679,1.099-3.029,2.531-4.051,4.294c-1.173,2.021-1.76,4.346-1.76,6.978
			c0,2.606,0.586,4.927,1.76,6.959c1.171,2.033,2.772,3.622,4.807,4.771c2.031,1.148,4.339,1.722,6.922,1.722
			c2.56,0,4.857-0.574,6.888-1.722c2.032-1.148,3.636-2.738,4.808-4.771c0.901-1.564,1.457-3.297,1.664-5.2
			c0.032-0.296,0.056-0.597,0.072-0.903v-1.721c-0.016-0.308-0.04-0.611-0.072-0.91c-0.209-1.915-0.762-3.65-1.664-5.203
			c-1.024-1.765-2.378-3.199-4.058-4.298v-7.006c0.985,0.343,1.938,0.755,2.857,1.24c1.025,0.543,1.98,1.154,2.865,1.837
			c0.024,0.018,0.048,0.037,0.072,0.055v-19.824h6.782V-201.365z M217.039-187.838c-0.418,0.718-0.986,1.285-1.704,1.704
			c-0.718,0.418-1.507,0.628-2.368,0.628c-0.861,0-1.651-0.21-2.368-0.628c-0.717-0.419-1.292-0.987-1.722-1.704
			c-0.43-0.717-0.646-1.507-0.646-2.367c0-0.861,0.215-1.65,0.646-2.368c0.43-0.717,1.005-1.292,1.722-1.722
			c0.717-0.43,1.507-0.646,2.368-0.646c0.861,0,1.65,0.215,2.368,0.646c0.718,0.43,1.285,1.005,1.704,1.722
			c0.418,0.718,0.628,1.507,0.628,2.368C217.667-189.344,217.457-188.555,217.039-187.838z"/>
		<rect x="7.287" y="-226.871" width="6.976" height="25.563"/>
		<path d="M25.682-201.308v-33.102h6.976v4.746c1.126-1.678,2.745-3.08,4.854-4.207c2.109-1.126,4.614-1.69,7.515-1.69
			c2.852,0,5.322,0.593,7.407,1.78c2.085,1.187,3.697,2.895,4.836,5.124c1.138,2.229,1.708,4.89,1.708,7.982v19.367h-6.976v-17.964
			c0-3.452-0.827-6.1-2.481-7.947c-1.654-1.846-3.979-2.769-6.976-2.769c-2.062,0-3.829,0.413-5.304,1.24
			c-1.474,0.827-2.607,1.93-3.398,3.308c-0.791,1.379-1.187,2.883-1.187,4.513v19.618H25.682z"/>
		<path d="M114.313-200.157c-3.908,0-7.425-0.827-10.553-2.481c-3.128-1.654-5.609-3.955-7.443-6.904
			c-1.834-2.948-2.751-6.34-2.751-10.176c0-3.859,0.917-7.257,2.751-10.194c1.834-2.936,4.315-5.232,7.443-6.886
			c3.128-1.654,6.646-2.481,10.553-2.481c3.907,0,7.425,0.827,10.553,2.481c3.128,1.654,5.609,3.95,7.443,6.886
			c1.834,2.937,2.751,6.335,2.751,10.194c0,3.836-0.917,7.227-2.751,10.176c-1.834,2.948-4.315,5.25-7.443,6.904
			C121.738-200.984,118.22-200.157,114.313-200.157z M114.349-206.234c2.565,0,4.866-0.575,6.904-1.726
			c2.037-1.151,3.643-2.745,4.818-4.782c1.174-2.037,1.762-4.363,1.762-6.976c0-2.637-0.588-4.968-1.762-6.994
			c-1.175-2.025-2.781-3.614-4.818-4.764c-2.038-1.151-4.339-1.726-6.904-1.726c-2.589,0-4.902,0.575-6.94,1.726
			c-2.038,1.151-3.644,2.739-4.818,4.764c-1.175,2.026-1.762,4.357-1.762,6.994c0,2.613,0.587,4.938,1.762,6.976
			c1.174,2.038,2.78,3.632,4.818,4.782C109.446-206.809,111.76-206.234,114.349-206.234z"/>
		<path d="M85.649-243.095c-1.33-0.419-2.739-0.629-4.225-0.629c-2.397,0-4.429,0.557-6.095,1.672
			c-1.666,1.115-2.937,2.727-3.811,4.836c-0.875,2.11-1.312,4.651-1.312,7.623v2.619h-4.063v5.286h4.063v20.381h6.976v-20.381h9.169
			v-5.286h-9.169v-2.655c0-1.63,0.18-3.038,0.539-4.225c0.36-1.187,0.935-2.104,1.726-2.751s1.846-0.971,3.164-0.971
			c1.606,0,2.96,0.408,4.063,1.223l2.445-4.962C88.136-242.082,86.98-242.675,85.649-243.095z"/>
	</g>
</g>
</svg>
