<?xml version="1.0" encoding="UTF-8"?>
<svg id="Capa_2" data-name="Capa 2" xmlns="http://www.w3.org/2000/svg" version="1.1" xmlns:xlink="http://www.w3.org/1999/xlink" viewBox="0 0 39.649 39.649">
  <defs>
    <clipPath id="clippath">
      <rect x="8.843" y="8.843" width="21.962" height="21.963" fill="none" stroke-width="0"/>
    </clipPath>
    <clipPath id="clippath-1">
      <rect x="8.843" y="8.843" width="21.962" height="21.963" fill="none" stroke-width="0"/>
    </clipPath>
  </defs>
  <g id="Ilustración_39" data-name="Ilustración 39">
    <g clip-path="url(#clippath)">
      <g clip-path="url(#clippath-1)">
        <path d="M24.708,16.531c0-.559-.181-1.054-.523-1.493-.187-.24-.381-.474-.563-.717-.396-.526-.409-1.192-.007-1.714.827-1.075,1.659-2.146,2.504-3.207.562-.706,1.514-.742,2.156-.104.603.599,1.186,1.219,1.81,1.795.581.536.755,1.196.714,1.944-.058,1.071-.435,2.05-.905,2.997-.865,1.743-2.017,3.293-3.28,4.761-2.222,2.584-4.642,4.965-7.352,7.039-1.365,1.044-2.797,1.984-4.424,2.579-.773.283-1.564.48-2.401.357-.453-.066-.848-.245-1.174-.573-.644-.646-1.294-1.286-1.937-1.933-.697-.702-.634-1.634.151-2.247,1.007-.787,2.017-1.571,3.027-2.354.659-.511,1.304-.504,1.959.016.183.145.365.292.55.436,1.049.818,2.36.746,3.305-.192,1.471-1.462,2.937-2.928,4.406-4.393.42-.418.842-.834,1.258-1.256.496-.504.728-1.07.726-1.74" fill="#000" stroke-width="0"/>
      </g>
    </g>
  </g>
</svg>