<?xml version="1.0" encoding="UTF-8"?>
<svg id="Capa_2" data-name="Capa 2" xmlns="http://www.w3.org/2000/svg" version="1.1" viewBox="0 0 39.649 39.649">
  <path d="M19.824.713C9.27.713.713,9.27.713,19.824s8.556,19.111,19.111,19.111,19.111-8.556,19.111-19.111S30.379.713,19.824.713ZM18.735,25.06c.464.548,1.055.53,1.055.53h6.85s1.251.97,1.251,2.47c0,1.404-1.251,2.388-1.251,2.388h-8.302s-2.999.027-4.931-1.529c-1.649-1.328-1.649-3.643-1.649-3.643v-15.195s.992-.881,3.258-.881c2.375,0,3.322.881,3.322.881v4.619h8.302s1.251.984,1.251,2.406c0,1.468-1.251,2.452-1.251,2.452h-8.302v4.386s0,.646.398,1.115Z" fill="#000" stroke-width="0"/>
</svg>