<?xml version="1.0" encoding="UTF-8"?>
<svg id="Capa_2" data-name="Capa 2" xmlns="http://www.w3.org/2000/svg" version="1.1" xmlns:xlink="http://www.w3.org/1999/xlink" viewBox="0 0 39.649 39.649">
  <defs>
    <clipPath id="clippath">
      <rect x="5.177" y="5.129" width="29.296" height="29.39" fill="none" stroke-width="0"/>
    </clipPath>
    <clipPath id="clippath-1">
      <rect x="5.177" y="5.129" width="29.296" height="29.39" fill="none" stroke-width="0"/>
    </clipPath>
  </defs>
  <g id="Capa_1" data-name="Capa 1">
    <g clip-path="url(#clippath)">
      <g clip-path="url(#clippath-1)">
        <path d="M34.318,17.606c-.395-2.876-1.573-5.425-3.529-7.574-3.317-3.644-7.466-5.263-12.368-4.835-2.829.247-5.374,1.304-7.591,3.089-3.092,2.489-4.924,5.712-5.421,9.651-.392,3.099.191,6.036,1.684,8.785.106.195.118.365.06.573-.658,2.391-1.31,4.783-1.977,7.225.096-.015.14-.018.181-.029,2.426-.625,4.852-1.248,7.275-1.881.19-.05.347-.04.516.051.314.168.629.348.953.483.769.321,1.56.58,2.379.764,2.065.466,4.136.541,6.209.119,3.574-.728,6.51-2.527,8.733-5.421,2.498-3.251,3.451-6.944,2.894-11M30.606,25.325c-.434.801-.951,1.549-1.549,2.247-1.787,2.086-4.01,3.452-6.694,4-3.039.62-5.94.17-8.619-1.423-.466-.277-.852-.192-1.287-.077-1.238.327-2.475.658-3.712.985-.019.005-.042-.009-.08-.017.393-1.434.777-2.852,1.176-4.266.049-.173-.021-.283-.098-.4-.929-1.409-1.553-2.949-1.819-4.61-.482-3.005.026-5.842,1.651-8.436,1.827-2.916,4.443-4.779,7.801-5.483,3.481-.73,6.737-.064,9.618,2.049,2.475,1.815,4.097,4.239,4.745,7.265.173.809.233,1.632.237,2.468.009,2.019-.409,3.924-1.37,5.698" fill="#000" stroke-width="0"/>
        <path d="M27.01,23c-1.013-.508-2.02-1.029-3.073-1.45-.21-.084-.476-.139-.655.072-.322.381-.633.774-.923,1.179-.337.471-.682.634-1.074.479-2.115-.837-3.714-2.27-4.885-4.203-.257-.425-.239-.539.102-.92.323-.361.662-.711.86-1.166.064-.146.135-.294.068-.454-.424-1.032-.845-2.065-1.284-3.09-.122-.286-.371-.423-.689-.474-1.049-.167-1.787.257-2.319,1.144-.73,1.218-.834,2.493-.4,3.828.358,1.102,1.018,2.032,1.694,2.949,1.649,2.236,3.606,4.092,6.296,5.031,1.01.353,2.01.741,3.077.758.206-.012.389-.003.566-.035,1.54-.28,2.901-1.222,2.896-3.104,0-.221-.026-.428-.258-.544" fill="#000" stroke-width="0"/>
        <path d="M23.806,26.682c-1.067-.017-2.067-.406-3.077-.758-2.689-.939-4.646-2.795-6.296-5.031-.676-.917-1.336-1.847-1.694-2.949-.434-1.335-.33-2.61.4-3.828.532-.887,1.27-1.311,2.319-1.144.317.051.566.188.689.474.438,1.026.859,2.059,1.284,3.09.066.161-.005.309-.068.455-.198.454-.537.805-.86,1.166-.341.381-.36.495-.102.92,1.171,1.933,2.771,3.366,4.885,4.203.392.155.737-.009,1.074-.479.29-.406.601-.798.923-1.179.178-.211.444-.156.655-.072,1.053.422,2.06.943,3.073,1.45.232.116.257.323.258.544.005,1.882-1.356,2.823-2.896,3.104-.176.032-.36.023-.566.035" fill="#000" stroke-width="0"/>
      </g>
    </g>
  </g>
</svg>