<?xml version="1.0" encoding="UTF-8"?>
<svg id="Capa_2" data-name="Capa 2" xmlns="http://www.w3.org/2000/svg" version="1.1" xmlns:xlink="http://www.w3.org/1999/xlink" viewBox="0 0 39.649 39.649">
  <defs>
    <clipPath id="clippath">
      <rect x="11.078" y="7.39" width="17.492" height="24.868" fill="none" stroke-width="0"/>
    </clipPath>
    <clipPath id="clippath-1">
      <rect x="11.078" y="7.39" width="17.492" height="24.868" fill="none" stroke-width="0"/>
    </clipPath>
  </defs>
  <g id="Ilustración_40" data-name="Ilustración 40">
    <g clip-path="url(#clippath)">
      <g clip-path="url(#clippath-1)">
        <path d="M28.486,14.941c-.475-3.545-3.135-6.488-6.621-7.306-.462-.108-.935-.165-1.404-.245h-1.263c-.062.014-.123.035-.185.042-2.429.251-4.441,1.31-5.968,3.208-2.404,2.987-2.61,6.934-.586,10.198,2.251,3.629,4.504,7.257,6.752,10.888.145.234.31.43.57.533h.34c.171-.151.394-.271.506-.458,2.241-3.719,4.475-7.443,6.698-11.173,1.047-1.756,1.432-3.656,1.16-5.687M15.459,16.135c0-2.409,1.962-4.373,4.371-4.373,2.41,0,4.372,1.963,4.371,4.373,0,2.418-1.952,4.368-4.371,4.369-2.414.001-4.371-1.955-4.371-4.369M12.535,16.031s0,.009,0,.014c0-.005,0-.009,0-.014" fill="#000" stroke-width="0"/>
      </g>
    </g>
  </g>
</svg>