<?xml version="1.0" encoding="UTF-8"?>
<svg id="Capa_2" data-name="Capa 2" xmlns="http://www.w3.org/2000/svg" version="1.1" viewBox="0 0 39.649 39.649">
  <path d="M19.824.713C9.27.713.713,9.27.713,19.824s8.556,19.111,19.111,19.111,19.111-8.556,19.111-19.111S30.379.713,19.824.713ZM29.455,29.39c-1.683.001-3.365-.003-5.048.005-.239.001-.401-.064-.549-.264-1.66-2.234-3.329-4.461-4.996-6.689-.128-.171-.268-.334-.372-.464-.404.373-.805.702-1.158,1.076-1.9,2.017-3.792,4.042-5.677,6.073-.183.198-.37.279-.629.269-.382-.013-.766-.003-1.255-.003.131-.166.193-.258.268-.337,2.134-2.278,4.27-4.556,6.406-6.833.331-.353.654-.714.997-1.055.207-.206.185-.359.015-.585-2.509-3.337-5.008-6.681-7.509-10.024-.049-.066-.09-.138-.172-.265.155-.014.265-.032.376-.032,1.671-.002,3.341.007,5.012-.008.327-.003.531.108.723.366,1.603,2.156,3.217,4.303,4.829,6.452.064.086.138.164.239.282.127-.118.244-.215.347-.325,2.028-2.163,4.056-4.324,6.075-6.495.182-.196.364-.286.629-.274.392.018.786.005,1.297.005-.385.421-.686.759-.995,1.089-2.117,2.262-4.232,4.526-6.357,6.779-.204.217-.184.361-.019.58,2.596,3.453,5.185,6.911,7.776,10.368.049.065.086.138.175.282-.193.013-.308.029-.424.029Z" fill="#000" stroke-width="0"/>
</svg>