<?xml version="1.0" encoding="UTF-8"?>
<svg id="guías" xmlns="http://www.w3.org/2000/svg" version="1.1" viewBox="0 0 39.649 39.649">
  <path d="M25.037,19.763c-.03.135-.142.148-.224.191-2.846,1.493-5.697,2.979-8.538,4.481-.345.182-.381.091-.38-.243.009-2.95.007-5.901.002-8.851,0-.259-.003-.403.326-.229,2.879,1.522,5.765,3.032,8.648,4.546.059.031.114.072.167.105Z" fill="#010101" stroke-width="0"/>
  <path d="M19.824.713C9.27.713.713,9.27.713,19.824s8.556,19.111,19.111,19.111,19.111-8.556,19.111-19.111S30.379.713,19.824.713ZM32.271,24.13c-.066.615-.143,1.23-.32,1.824-.396,1.327-1.274,2.145-2.653,2.323-1.98.255-3.975.328-5.97.342-1.166.008-2.333.001-3.499.001-3.022.021-6.04-.036-9.057-.268-1.917-.147-2.946-1.437-3.191-2.845-.159-.915-.288-1.833-.313-2.761-.072-2.613-.162-5.227.199-7.829.042-.306.101-.61.167-.912.336-1.541,1.419-2.491,2.992-2.628,5.585-.487,11.175-.401,16.766-.148.589.027,1.176.096,1.763.161,1.48.164,2.542,1.123,2.864,2.572.251,1.13.366,2.277.388,3.429.044,2.248.105,4.497-.135,6.74Z" fill="#000" stroke-width="0"/>
  <path d="M25.037,19.763c-.053-.033-.107-.074-.167-.105-2.883-1.514-5.769-3.023-8.648-4.546-.328-.174-.326-.03-.326.229.005,2.95.007,5.901-.002,8.851-.001.335.035.426.38.243,2.842-1.502,5.692-2.988,8.538-4.481.082-.043.194-.057.224-.191Z" fill="#000" stroke-width="0"/>
</svg>